<svg version="1.1" xmlns="http://www.w3.org/2000/svg" viewBox="0 0 388.23931884765625 302.9021911621094" width="388.23931884765625" height="302.9021911621094" filter="invert(93%) hue-rotate(180deg)" class="excalidraw-svg">
  <!-- svg-source:excalidraw -->
  
  <defs>
    <style class="style-fonts">
      @font-face {
        font-family: "Virgil";
        src: url("https://excalidraw.com/Virgil.woff2");
      }
      @font-face {
        font-family: "Cascadia";
        src: url("https://excalidraw.com/Cascadia.woff2");
      }
      @font-face {
        font-family: "Assistant";
        src: url("https://excalidraw.com/Assistant-Regular.woff2");
      }
    </style>
    
  </defs>
  <rect x="0" y="0" width="388.23931884765625" height="302.9021911621094" fill="#ffffff"/><g stroke-linecap="round" transform="translate(199.22894287109375 10) rotate(0 15.8135986328125 15.609527587890625)"><path d="M14.08 -0.31 C17.34 -0.76, 22.22 1.15, 25.01 3.11 C27.8 5.06, 30.02 8.22, 30.81 11.41 C31.6 14.61, 31.09 19.22, 29.75 22.26 C28.41 25.31, 25.72 28.28, 22.78 29.67 C19.84 31.06, 15.36 31.41, 12.1 30.61 C8.85 29.82, 5.19 27.56, 3.26 24.91 C1.32 22.27, 0.27 18.14, 0.5 14.74 C0.73 11.34, 2.32 6.99, 4.63 4.5 C6.94 2.02, 12.68 0.51, 14.38 -0.17 C16.08 -0.86, 14.69 0.16, 14.83 0.39 M14.34 -0.19 C17.76 -0.58, 22.97 0.42, 25.88 2.48 C28.78 4.55, 31.01 8.88, 31.75 12.19 C32.5 15.49, 31.85 19.39, 30.33 22.3 C28.81 25.22, 25.87 28.3, 22.63 29.69 C19.4 31.08, 14.38 31.65, 10.92 30.63 C7.47 29.6, 3.7 26.43, 1.91 23.54 C0.13 20.66, -0.35 16.4, 0.24 13.31 C0.83 10.21, 3.02 7.25, 5.45 4.95 C7.87 2.66, 13.31 0.21, 14.79 -0.45 C16.27 -1.1, 14.21 0.7, 14.32 1.02" stroke="#1e1e1e" stroke-width="2" fill="none"/></g><g stroke-linecap="round"><g transform="translate(202.37322998046875 43.417877197265625) rotate(0 -29.9278564453125 39.84544372558594)"><path d="M0.14 0.07 C-9.53 13.26, -49.15 65.54, -59.21 78.93 M-1.24 -0.94 C-10.91 12.4, -49.83 66.83, -59.82 80.06" stroke="#1e1e1e" stroke-width="2" fill="none"/></g><g transform="translate(202.37322998046875 43.417877197265625) rotate(0 -29.9278564453125 39.84544372558594)"><path d="M-52.85 56.06 C-54.18 61.94, -56.96 65.05, -59.82 80.06 M-52.85 56.06 C-55.67 65.06, -57.24 72.42, -59.82 80.06" stroke="#1e1e1e" stroke-width="2" fill="none"/></g><g transform="translate(202.37322998046875 43.417877197265625) rotate(0 -29.9278564453125 39.84544372558594)"><path d="M-39.05 66.16 C-43.12 70.04, -48.66 71.12, -59.82 80.06 M-39.05 66.16 C-46.86 71.57, -53.4 75.28, -59.82 80.06" stroke="#1e1e1e" stroke-width="2" fill="none"/></g></g><mask/><g stroke-linecap="round"><g transform="translate(233.69415283203125 37.5892333984375) rotate(0 27.5289306640625 42.58233642578125)"><path d="M-0.47 0.54 C8.63 14.52, 45.46 70.98, 54.51 84.95 M1.49 -0.23 C10.38 14.47, 44.17 72.13, 53.28 86.37" stroke="#1e1e1e" stroke-width="2" fill="none"/></g><g transform="translate(233.69415283203125 37.5892333984375) rotate(0 27.5289306640625 42.58233642578125)"><path d="M33.76 70.75 C40.57 74.55, 45.11 78.12, 53.28 86.37 M33.76 70.75 C37.35 75.2, 42.9 77.65, 53.28 86.37" stroke="#1e1e1e" stroke-width="2" fill="none"/></g><g transform="translate(233.69415283203125 37.5892333984375) rotate(0 27.5289306640625 42.58233642578125)"><path d="M48.36 61.86 C50.92 68.24, 51.12 74.44, 53.28 86.37 M48.36 61.86 C48.63 68.25, 50.82 72.75, 53.28 86.37" stroke="#1e1e1e" stroke-width="2" fill="none"/></g></g><mask/><g stroke-linecap="round" transform="translate(119.61187744140625 132.24374389648438) rotate(0 15.8135986328125 15.609527587890625)"><path d="M13.46 0.01 C16.66 -0.81, 21.11 -0.12, 23.98 1.65 C26.85 3.41, 29.51 7.45, 30.68 10.6 C31.84 13.75, 32.18 17.52, 30.96 20.56 C29.74 23.59, 26.31 27.09, 23.36 28.81 C20.4 30.53, 16.45 31.43, 13.23 30.88 C10.01 30.33, 6.29 28.1, 4.04 25.51 C1.78 22.92, -0.19 18.59, -0.32 15.33 C-0.45 12.07, 0.91 8.53, 3.28 5.95 C5.64 3.36, 11.92 0.79, 13.88 -0.16 C15.83 -1.11, 14.98 -0.01, 15.02 0.23 M17.8 0.35 C21 0.62, 26.02 3.19, 28.23 5.59 C30.43 7.99, 31.15 11.38, 31.03 14.77 C30.91 18.17, 29.44 23.14, 27.51 25.96 C25.59 28.78, 22.59 31.05, 19.47 31.68 C16.35 32.32, 11.99 31.52, 8.81 29.77 C5.62 28.02, 1.59 24.35, 0.37 21.19 C-0.86 18.02, 0.32 13.96, 1.47 10.79 C2.62 7.63, 4.34 4.07, 7.26 2.2 C10.18 0.32, 17.12 -0.16, 18.98 -0.45 C20.84 -0.74, 18.58 0.14, 18.41 0.46" stroke="#1e1e1e" stroke-width="2" fill="none"/></g><g stroke-linecap="round" transform="translate(282.95025634765625 130.8995361328125) rotate(0 15.8135986328125 15.609527587890625)"><path d="M15.15 -0.29 C18.26 -0.54, 22.79 1.54, 25.47 3.78 C28.16 6.01, 30.59 9.9, 31.26 13.1 C31.94 16.29, 31.21 20.15, 29.53 22.92 C27.86 25.7, 24.3 28.51, 21.21 29.74 C18.13 30.96, 14.24 31.26, 11.02 30.27 C7.81 29.29, 3.77 26.71, 1.95 23.83 C0.13 20.96, -0.44 16.32, 0.09 13.03 C0.61 9.74, 2.4 6.22, 5.09 4.09 C7.79 1.97, 14.46 0.89, 16.26 0.28 C18.05 -0.33, 15.86 0.18, 15.85 0.42 M13.24 0.95 C16.58 0.34, 21.19 1.2, 24.16 2.58 C27.13 3.97, 29.95 6.15, 31.06 9.26 C32.16 12.36, 31.91 18.01, 30.78 21.22 C29.65 24.44, 27.2 26.78, 24.3 28.53 C21.4 30.28, 16.89 32.14, 13.39 31.73 C9.89 31.32, 5.52 28.72, 3.29 26.08 C1.05 23.44, -0.02 19.19, -0.04 15.88 C-0.05 12.57, 1.06 8.92, 3.21 6.21 C5.36 3.51, 11.3 0.59, 12.86 -0.34 C14.43 -1.27, 12.55 0.16, 12.6 0.63" stroke="#1e1e1e" stroke-width="2" fill="none"/></g><g stroke-linecap="round"><g transform="translate(117.66455078125 162.64712524414062) rotate(0 -30.097320556640625 33.87397766113281)"><path d="M-0.06 -0.09 C-10.19 11.16, -50.5 57.47, -60.56 68.63 M-1.54 -1.18 C-11.88 10.25, -51.74 55.48, -61.7 66.97" stroke="#1e1e1e" stroke-width="2" fill="none"/></g><g transform="translate(117.66455078125 162.64712524414062) rotate(0 -30.097320556640625 33.87397766113281)"><path d="M-52.66 43.66 C-55.47 50.47, -56.72 58.14, -61.7 66.97 M-52.66 43.66 C-53.7 48.41, -57.45 54.99, -61.7 66.97" stroke="#1e1e1e" stroke-width="2" fill="none"/></g><g transform="translate(117.66455078125 162.64712524414062) rotate(0 -30.097320556640625 33.87397766113281)"><path d="M-39.79 54.93 C-46.8 58.14, -52.14 62.23, -61.7 66.97 M-39.79 54.93 C-43.82 56.98, -50.51 60.98, -61.7 66.97" stroke="#1e1e1e" stroke-width="2" fill="none"/></g></g><mask/><g stroke-linecap="round"><g transform="translate(151.30938720703125 163.60592651367188) rotate(0 24.31219482421875 34.3763427734375)"><path d="M1.17 -0.11 C9.38 11.11, 40.95 56.05, 49.02 67.67 M0.32 -1.21 C8.43 10.09, 40.11 57.14, 48.27 68.64" stroke="#1e1e1e" stroke-width="2" fill="none"/></g><g transform="translate(151.30938720703125 163.60592651367188) rotate(0 24.31219482421875 34.3763427734375)"><path d="M27.9 54.15 C33.5 58.68, 37.6 63.66, 48.27 68.64 M27.9 54.15 C34.76 59.51, 42.54 65.83, 48.27 68.64" stroke="#1e1e1e" stroke-width="2" fill="none"/></g><g transform="translate(151.30938720703125 163.60592651367188) rotate(0 24.31219482421875 34.3763427734375)"><path d="M41.98 44.45 C43.65 51.84, 43.79 59.55, 48.27 68.64 M41.98 44.45 C43.48 53.51, 45.98 63.47, 48.27 68.64" stroke="#1e1e1e" stroke-width="2" fill="none"/></g></g><mask/><g stroke-linecap="round"><g transform="translate(288.09393310546875 163.48660278320312) rotate(0 -20.2880859375 34.92185974121094)"><path d="M0.56 1.15 C-6.41 12.76, -35.02 58.13, -41.74 69.42 M-0.61 0.71 C-7.23 12.51, -33.06 59.24, -39.64 70.73" stroke="#1e1e1e" stroke-width="2" fill="none"/></g><g transform="translate(288.09393310546875 163.48660278320312) rotate(0 -20.2880859375 34.92185974121094)"><path d="M-35.6 46.06 C-34.96 51.61, -38.82 62.34, -39.64 70.73 M-35.6 46.06 C-36.07 51.75, -37.55 55.9, -39.64 70.73" stroke="#1e1e1e" stroke-width="2" fill="none"/></g><g transform="translate(288.09393310546875 163.48660278320312) rotate(0 -20.2880859375 34.92185974121094)"><path d="M-20.69 54.43 C-24.55 57.51, -32.92 65.7, -39.64 70.73 M-20.69 54.43 C-24.36 58.39, -29.11 60.71, -39.64 70.73" stroke="#1e1e1e" stroke-width="2" fill="none"/></g></g><mask/><g stroke-linecap="round"><g transform="translate(317.09503173828125 159.29327392578125) rotate(0 27.2562255859375 37.705047607421875)"><path d="M0.74 0.4 C9.76 12.68, 46 62.23, 55.11 74.58 M-0.33 -0.44 C8.49 11.89, 45.24 63.05, 54.48 75.68" stroke="#1e1e1e" stroke-width="2" fill="none"/></g><g transform="translate(317.09503173828125 159.29327392578125) rotate(0 27.2562255859375 37.705047607421875)"><path d="M33.78 61.66 C42.47 67.9, 48.35 73.76, 54.48 75.68 M33.78 61.66 C38.85 64.32, 42.91 67.74, 54.48 75.68" stroke="#1e1e1e" stroke-width="2" fill="none"/></g><g transform="translate(317.09503173828125 159.29327392578125) rotate(0 27.2562255859375 37.705047607421875)"><path d="M47.63 51.63 C51.1 61.8, 51.67 71.49, 54.48 75.68 M47.63 51.63 C49.62 56.58, 50.57 62.25, 54.48 75.68" stroke="#1e1e1e" stroke-width="2" fill="none"/></g></g><mask/><g stroke-linecap="round" transform="translate(10 261.6831359863281) rotate(0 15.8135986328125 15.609527587890629)"><path d="M17.6 0.51 C20.85 0.63, 24.6 2.7, 26.95 5.06 C29.31 7.42, 31.42 11.34, 31.72 14.65 C32.02 17.95, 30.73 22.17, 28.76 24.9 C26.79 27.63, 23.09 30.21, 19.89 31.03 C16.68 31.85, 12.68 31.38, 9.54 29.83 C6.39 28.28, 2.54 24.8, 1.03 21.72 C-0.48 18.65, -0.41 14.54, 0.49 11.36 C1.39 8.18, 3.38 4.49, 6.43 2.65 C9.47 0.8, 16.55 0.72, 18.75 0.32 C20.94 -0.09, 19.79 -0.04, 19.6 0.21 M12.9 0.83 C16.09 0.22, 20.74 1.16, 23.73 2.83 C26.72 4.49, 29.66 7.8, 30.82 10.81 C31.97 13.83, 31.81 17.77, 30.66 20.94 C29.51 24.1, 27.04 28.09, 23.94 29.81 C20.84 31.52, 15.6 31.89, 12.08 31.21 C8.56 30.54, 4.83 28.37, 2.8 25.75 C0.76 23.13, -0.29 19.01, -0.13 15.5 C0.03 12, 1.49 7.39, 3.76 4.72 C6.02 2.04, 11.84 0.09, 13.49 -0.56 C15.13 -1.21, 13.68 0.44, 13.62 0.84" stroke="#1e1e1e" stroke-width="2" fill="none"/></g><g stroke-linecap="round" transform="translate(169.88116455078125 260.0859680175781) rotate(0 15.8135986328125 15.609527587890629)"><path d="M19.26 0.64 C22.43 1.13, 26.27 3.79, 28.41 6.42 C30.54 9.04, 32.31 13.16, 32.09 16.38 C31.87 19.59, 29.44 23.3, 27.07 25.73 C24.69 28.16, 21.18 30.46, 17.83 30.95 C14.48 31.43, 9.72 30.4, 6.95 28.65 C4.18 26.9, 2.12 23.69, 1.23 20.45 C0.35 17.21, 0.49 12.29, 1.64 9.19 C2.79 6.09, 5.13 3.37, 8.12 1.86 C11.12 0.35, 17.53 0.36, 19.61 0.14 C21.7 -0.07, 20.59 0.31, 20.64 0.58 M18.5 -0.28 C21.82 0.1, 26.33 3.18, 28.44 5.84 C30.54 8.51, 31.29 12.36, 31.13 15.71 C30.97 19.06, 29.57 23.35, 27.49 25.96 C25.41 28.56, 21.92 30.86, 18.65 31.33 C15.37 31.8, 10.78 30.57, 7.83 28.76 C4.88 26.94, 2.11 23.43, 0.95 20.44 C-0.2 17.46, -0.13 13.87, 0.88 10.86 C1.9 7.84, 4.19 4.04, 7.03 2.34 C9.88 0.65, 16.05 0.86, 17.94 0.67 C19.84 0.47, 18.34 1.1, 18.42 1.16" stroke="#1e1e1e" stroke-width="2" fill="none"/></g><g stroke-linecap="round" transform="translate(236.32171630859375 256.7580871582031) rotate(0 15.8135986328125 15.609527587890629)"><path d="M17.95 -0.21 C21.07 0.07, 25.52 2.71, 27.74 5.3 C29.95 7.88, 31.11 11.9, 31.24 15.29 C31.38 18.68, 30.55 23.09, 28.55 25.63 C26.54 28.16, 22.67 29.87, 19.19 30.49 C15.72 31.1, 10.78 30.93, 7.7 29.31 C4.62 27.68, 1.84 23.95, 0.73 20.74 C-0.37 17.52, -0.19 13.15, 1.05 10.01 C2.3 6.87, 5.12 3.52, 8.19 1.9 C11.26 0.29, 17.52 0.5, 19.46 0.34 C21.41 0.18, 20.04 0.61, 19.88 0.94 M17.53 0.66 C20.8 0.93, 25.19 3.29, 27.49 5.63 C29.8 7.96, 31.24 11.52, 31.35 14.68 C31.45 17.84, 30.19 21.81, 28.13 24.58 C26.08 27.34, 22.43 30.45, 19.01 31.27 C15.59 32.09, 10.67 31.06, 7.62 29.48 C4.58 27.91, 1.84 24.85, 0.72 21.83 C-0.39 18.81, -0.24 14.72, 0.94 11.34 C2.13 7.97, 5.09 3.36, 7.84 1.6 C10.6 -0.17, 15.72 0.96, 17.49 0.75 C19.25 0.53, 18.47 0.11, 18.45 0.31" stroke="#1e1e1e" stroke-width="2" fill="none"/></g><g stroke-linecap="round" transform="translate(346.61212158203125 246.52035522460938) rotate(0 15.8135986328125 15.609527587890629)"><path d="M15.24 0.16 C18.58 -0.3, 22.99 0.58, 25.58 2.54 C28.18 4.51, 30.1 8.7, 30.79 11.96 C31.48 15.21, 31.13 19.18, 29.73 22.1 C28.32 25.01, 25.35 28.07, 22.38 29.44 C19.4 30.81, 15.1 31.18, 11.87 30.32 C8.64 29.46, 4.96 27.01, 3 24.29 C1.05 21.58, -0.12 17.3, 0.14 14.05 C0.4 10.8, 1.98 7.19, 4.54 4.79 C7.09 2.4, 13.59 0.5, 15.47 -0.32 C17.35 -1.13, 15.81 -0.38, 15.82 -0.08 M17.78 -0.59 C21.04 -0.23, 25.27 2.81, 27.46 5.42 C29.66 8.02, 30.85 11.69, 30.93 15.04 C31.02 18.4, 29.91 22.82, 27.98 25.56 C26.06 28.3, 22.58 30.97, 19.4 31.5 C16.21 32.03, 11.99 30.29, 8.86 28.74 C5.72 27.19, 1.88 25.18, 0.59 22.18 C-0.71 19.19, 0.08 14.03, 1.11 10.78 C2.14 7.53, 3.91 4.51, 6.78 2.7 C9.64 0.88, 16.57 0.18, 18.3 -0.11 C20.03 -0.4, 17.15 0.63, 17.15 0.96" stroke="#1e1e1e" stroke-width="2" fill="none"/></g></svg>