<svg version="1.1" xmlns="http://www.w3.org/2000/svg" viewBox="0 0 1028.5401501832189 1363.9455990976753" width="1028.5401501832189" height="1363.9455990976753" class="excalidraw-svg">
  <!-- svg-source:excalidraw -->
  
  <defs>
    <style class="style-fonts">
      @font-face {
        font-family: "Virgil";
        src: url("https://excalidraw.com/Virgil.woff2");
      }
      @font-face {
        font-family: "Cascadia";
        src: url("https://excalidraw.com/Cascadia.woff2");
      }
      @font-face {
        font-family: "Assistant";
        src: url("https://excalidraw.com/Assistant-Regular.woff2");
      }
    </style>
    
  </defs>
  <rect x="0" y="0" width="1028.5401501832189" height="1363.9455990976753" fill="#ffffff"/><g stroke-linecap="round" transform="translate(569.293079023008 307.0836139255099) rotate(0 200.80282592773438 372.25423940022785)"><path d="M32 0 C102.36 0, 172.73 0, 369.61 0 C390.94 0, 401.61 10.67, 401.61 32 C401.61 243.67, 401.61 455.34, 401.61 712.51 C401.61 733.84, 390.94 744.51, 369.61 744.51 C280.17 744.51, 190.74 744.51, 32 744.51 C10.67 744.51, 0 733.84, 0 712.51 C0 569.78, 0 427.05, 0 32 C0 10.67, 10.67 0, 32 0" stroke="none" stroke-width="0" fill="#eaddd7"/><path d="M32 0 C152.89 0, 273.79 0, 369.61 0 M32 0 C112.36 0, 192.72 0, 369.61 0 M369.61 0 C390.94 0, 401.61 10.67, 401.61 32 M369.61 0 C390.94 0, 401.61 10.67, 401.61 32 M401.61 32 C401.61 171.72, 401.61 311.44, 401.61 712.51 M401.61 32 C401.61 293.54, 401.61 555.07, 401.61 712.51 M401.61 712.51 C401.61 733.84, 390.94 744.51, 369.61 744.51 M401.61 712.51 C401.61 733.84, 390.94 744.51, 369.61 744.51 M369.61 744.51 C249.67 744.51, 129.73 744.51, 32 744.51 M369.61 744.51 C240.21 744.51, 110.81 744.51, 32 744.51 M32 744.51 C10.67 744.51, 0 733.84, 0 712.51 M32 744.51 C10.67 744.51, 0 733.84, 0 712.51 M0 712.51 C0 452.3, 0 192.09, 0 32 M0 712.51 C0 565.73, 0 418.95, 0 32 M0 32 C0 10.67, 10.67 0, 32 0 M0 32 C0 10.67, 10.67 0, 32 0" stroke="#1e1e1e" stroke-width="2" fill="none"/></g><g stroke-linecap="round" transform="translate(168.12580652590145 1153.150687401162) rotate(0 94.39114379882812 42.02093505859375)"><path d="M21.01 0 C65.73 0, 110.45 0, 167.77 0 C181.78 0, 188.78 7, 188.78 21.01 C188.78 37.11, 188.78 53.22, 188.78 63.03 C188.78 77.04, 181.78 84.04, 167.77 84.04 C110.23 84.04, 52.7 84.04, 21.01 84.04 C7 84.04, 0 77.04, 0 63.03 C0 53.43, 0 43.82, 0 21.01 C0 7, 7 0, 21.01 0" stroke="none" stroke-width="0" fill="#ffc9c9"/><path d="M21.01 0 C78.83 0, 136.64 0, 167.77 0 M21.01 0 C68.99 0, 116.98 0, 167.77 0 M167.77 0 C181.78 0, 188.78 7, 188.78 21.01 M167.77 0 C181.78 0, 188.78 7, 188.78 21.01 M188.78 21.01 C188.78 29.94, 188.78 38.87, 188.78 63.03 M188.78 21.01 C188.78 33.69, 188.78 46.36, 188.78 63.03 M188.78 63.03 C188.78 77.04, 181.78 84.04, 167.77 84.04 M188.78 63.03 C188.78 77.04, 181.78 84.04, 167.77 84.04 M167.77 84.04 C109.16 84.04, 50.55 84.04, 21.01 84.04 M167.77 84.04 C131.07 84.04, 94.38 84.04, 21.01 84.04 M21.01 84.04 C7 84.04, 0 77.04, 0 63.03 M21.01 84.04 C7 84.04, 0 77.04, 0 63.03 M0 63.03 C0 52.03, 0 41.02, 0 21.01 M0 63.03 C0 50.63, 0 38.23, 0 21.01 M0 21.01 C0 7, 7 0, 21.01 0 M0 21.01 C0 7, 7 0, 21.01 0" stroke="#1e1e1e" stroke-width="2" fill="none"/></g><g stroke-linecap="round" transform="translate(61.448487952903406 530.0975838257204) rotate(0 200.80282592773438 259.52835845947266)"><path d="M32 0 C137.44 0, 242.88 0, 369.61 0 C390.94 0, 401.61 10.67, 401.61 32 C401.61 185.47, 401.61 338.94, 401.61 487.06 C401.61 508.39, 390.94 519.06, 369.61 519.06 C300.75 519.06, 231.9 519.06, 32 519.06 C10.67 519.06, 0 508.39, 0 487.06 C0 383.57, 0 280.09, 0 32 C0 10.67, 10.67 0, 32 0" stroke="none" stroke-width="0" fill="#eaddd7"/><path d="M32 0 C103.36 0, 174.73 0, 369.61 0 M32 0 C112.89 0, 193.77 0, 369.61 0 M369.61 0 C390.94 0, 401.61 10.67, 401.61 32 M369.61 0 C390.94 0, 401.61 10.67, 401.61 32 M401.61 32 C401.61 179.52, 401.61 327.03, 401.61 487.06 M401.61 32 C401.61 133.03, 401.61 234.05, 401.61 487.06 M401.61 487.06 C401.61 508.39, 390.94 519.06, 369.61 519.06 M401.61 487.06 C401.61 508.39, 390.94 519.06, 369.61 519.06 M369.61 519.06 C289.08 519.06, 208.56 519.06, 32 519.06 M369.61 519.06 C289.87 519.06, 210.14 519.06, 32 519.06 M32 519.06 C10.67 519.06, 0 508.39, 0 487.06 M32 519.06 C10.67 519.06, 0 508.39, 0 487.06 M0 487.06 C0 373.48, 0 259.91, 0 32 M0 487.06 C0 345.57, 0 204.09, 0 32 M0 32 C0 10.67, 10.67 0, 32 0 M0 32 C0 10.67, 10.67 0, 32 0" stroke="#1e1e1e" stroke-width="2" fill="none"/></g><g stroke-linecap="round" transform="translate(175.25825281496395 876.449515526162) rotate(0 92.59259033203125 41.7977294921875)"><path d="M20.9 0 C58.66 0, 96.42 0, 164.29 0 C178.22 0, 185.19 6.97, 185.19 20.9 C185.19 37.43, 185.19 53.96, 185.19 62.7 C185.19 76.63, 178.22 83.6, 164.29 83.6 C122.62 83.6, 80.96 83.6, 20.9 83.6 C6.97 83.6, 0 76.63, 0 62.7 C0 52, 0 41.31, 0 20.9 C0 6.97, 6.97 0, 20.9 0" stroke="none" stroke-width="0" fill="#a5d8ff"/><path d="M20.9 0 C60.92 0, 100.94 0, 164.29 0 M20.9 0 C56.06 0, 91.23 0, 164.29 0 M164.29 0 C178.22 0, 185.19 6.97, 185.19 20.9 M164.29 0 C178.22 0, 185.19 6.97, 185.19 20.9 M185.19 20.9 C185.19 36.75, 185.19 52.61, 185.19 62.7 M185.19 20.9 C185.19 33.79, 185.19 46.69, 185.19 62.7 M185.19 62.7 C185.19 76.63, 178.22 83.6, 164.29 83.6 M185.19 62.7 C185.19 76.63, 178.22 83.6, 164.29 83.6 M164.29 83.6 C111.19 83.6, 58.1 83.6, 20.9 83.6 M164.29 83.6 C129.83 83.6, 95.37 83.6, 20.9 83.6 M20.9 83.6 C6.97 83.6, 0 76.63, 0 62.7 M20.9 83.6 C6.97 83.6, 0 76.63, 0 62.7 M0 62.7 C0 46.5, 0 30.31, 0 20.9 M0 62.7 C0 50.76, 0 38.83, 0 20.9 M0 20.9 C0 6.97, 6.97 0, 20.9 0 M0 20.9 C0 6.97, 6.97 0, 20.9 0" stroke="#1e1e1e" stroke-width="2" fill="none"/></g><g transform="translate(220.3267952954327 1281.7273231433496) rotate(0 38.1376953125 16.10000000000001)"><text x="0" y="25.760546874999996" font-family="Helvetica, Segoe UI Emoji" font-size="28px" fill="#1e1e1e" text-anchor="start" style="white-space: pre;" direction="ltr" dominant-baseline="alphabetic">Inputs</text></g><g stroke-linecap="round"><g transform="translate(258.9777711761004 1279.382641339964) rotate(0 0.32173902906720286 -17.135508219401004)"><path d="M0 0 C0.22 -11.71, 0.44 -23.42, 0.64 -34.27 M0 0 C0.13 -6.89, 0.26 -13.79, 0.64 -34.27" stroke="#1e1e1e" stroke-width="2" fill="none"/></g><g transform="translate(258.9777711761004 1279.382641339964) rotate(0 0.32173902906720286 -17.135508219401004)"><path d="M0.64 -34.27 L6.73 -20.56 L-5.95 -20.8 L0.64 -34.27" stroke="none" stroke-width="0" fill="#1e1e1e" fill-rule="evenodd"/><path d="M0.64 -34.27 C2.72 -29.59, 4.8 -24.9, 6.73 -20.56 M0.64 -34.27 C1.87 -31.51, 3.09 -28.76, 6.73 -20.56 M6.73 -20.56 C1.95 -20.65, -2.83 -20.74, -5.95 -20.8 M6.73 -20.56 C2.56 -20.64, -1.61 -20.72, -5.95 -20.8 M-5.95 -20.8 C-3.93 -24.93, -1.9 -29.07, 0.64 -34.27 M-5.95 -20.8 C-3.4 -26.01, -0.85 -31.22, 0.64 -34.27 M0.64 -34.27 C0.64 -34.27, 0.64 -34.27, 0.64 -34.27 M0.64 -34.27 C0.64 -34.27, 0.64 -34.27, 0.64 -34.27" stroke="#1e1e1e" stroke-width="2" fill="none"/></g></g><mask/><g transform="translate(191.96040125246395 1160.563773338662) rotate(0 70.8271484375 32.19999999999999)"><text x="70.8271484375" y="25.760546874999996" font-family="Helvetica, Segoe UI Emoji" font-size="28px" fill="#1e1e1e" text-anchor="middle" style="white-space: pre;" direction="ltr" dominant-baseline="alphabetic">Input</text><text x="70.8271484375" y="57.96054687499999" font-family="Helvetica, Segoe UI Emoji" font-size="28px" fill="#1e1e1e" text-anchor="middle" style="white-space: pre;" direction="ltr" dominant-baseline="alphabetic">Embedding</text></g><g stroke-linecap="round"><g transform="translate(259.30109949465145 1145.8856727527245) rotate(0 0.222900390625 -11.190399169921875)"><path d="M0 0 C0.07 -3.73, 0.37 -18.65, 0.45 -22.38 M0 0 C0.07 -3.73, 0.37 -18.65, 0.45 -22.38" stroke="#1e1e1e" stroke-width="2" fill="none"/></g><g transform="translate(259.30109949465145 1145.8856727527245) rotate(0 0.222900390625 -11.190399169921875)"><path d="M0.45 -22.38 L4.97 -12.14 L-4.49 -12.33 L0.45 -22.38" stroke="none" stroke-width="0" fill="#1e1e1e" fill-rule="evenodd"/><path d="M0.45 -22.38 C1.51 -19.97, 2.58 -17.56, 4.97 -12.14 M0.45 -22.38 C1.74 -19.44, 3.04 -16.51, 4.97 -12.14 M4.97 -12.14 C2.84 -12.19, 0.7 -12.23, -4.49 -12.33 M4.97 -12.14 C1.73 -12.21, -1.52 -12.27, -4.49 -12.33 M-4.49 -12.33 C-2.54 -16.31, -0.59 -20.28, 0.45 -22.38 M-4.49 -12.33 C-2.52 -16.35, -0.55 -20.36, 0.45 -22.38 M0.45 -22.38 C0.45 -22.38, 0.45 -22.38, 0.45 -22.38 M0.45 -22.38 C0.45 -22.38, 0.45 -22.38, 0.45 -22.38" stroke="#1e1e1e" stroke-width="2" fill="none"/></g></g><mask/><g stroke-linecap="round" transform="translate(240.2966439282452 1086.6971961902245) rotate(0 19.9285888671875 16.316680908203125)"><path d="M39.86 16.32 C39.86 17.26, 39.75 18.22, 39.55 19.15 C39.35 20.08, 39.05 21.01, 38.66 21.9 C38.26 22.78, 37.76 23.66, 37.19 24.48 C36.61 25.29, 35.94 26.08, 35.19 26.8 C34.45 27.53, 33.62 28.21, 32.74 28.82 C31.85 29.42, 30.89 29.98, 29.89 30.45 C28.89 30.92, 27.83 31.33, 26.74 31.65 C25.66 31.97, 24.53 32.22, 23.39 32.39 C22.25 32.55, 21.08 32.63, 19.93 32.63 C18.78 32.63, 17.6 32.55, 16.47 32.39 C15.33 32.22, 14.2 31.97, 13.11 31.65 C12.03 31.33, 10.96 30.92, 9.96 30.45 C8.97 29.98, 8 29.42, 7.12 28.82 C6.24 28.21, 5.4 27.53, 4.66 26.8 C3.92 26.08, 3.25 25.29, 2.67 24.48 C2.09 23.66, 1.6 22.78, 1.2 21.9 C0.81 21.01, 0.5 20.08, 0.3 19.15 C0.1 18.22, 0 17.26, 0 16.32 C0 15.37, 0.1 14.41, 0.3 13.48 C0.5 12.55, 0.81 11.62, 1.2 10.74 C1.6 9.85, 2.09 8.98, 2.67 8.16 C3.25 7.34, 3.92 6.55, 4.66 5.83 C5.4 5.11, 6.24 4.42, 7.12 3.82 C8 3.21, 8.97 2.66, 9.96 2.19 C10.96 1.71, 12.03 1.31, 13.11 0.98 C14.2 0.66, 15.33 0.41, 16.47 0.25 C17.6 0.08, 18.78 0, 19.93 0 C21.08 0, 22.25 0.08, 23.39 0.25 C24.53 0.41, 25.66 0.66, 26.74 0.98 C27.83 1.31, 28.89 1.71, 29.89 2.19 C30.89 2.66, 31.85 3.21, 32.74 3.82 C33.62 4.42, 34.45 5.11, 35.19 5.83 C35.94 6.55, 36.61 7.34, 37.19 8.16 C37.76 8.98, 38.26 9.85, 38.66 10.74 C39.05 11.62, 39.35 12.55, 39.55 13.48 C39.75 14.41, 39.81 15.84, 39.86 16.32 C39.91 16.79, 39.91 15.84, 39.86 16.32" stroke="#1e1e1e" stroke-width="2" fill="none"/></g><g transform="translate(251.45734949465145 1084.354788963662) rotate(0 8.17578125 16.099999999999994)"><text x="8.17578125" y="25.760546874999996" font-family="Helvetica, Segoe UI Emoji" font-size="28px" fill="#1e1e1e" text-anchor="middle" style="white-space: pre;" direction="ltr" dominant-baseline="alphabetic">+</text></g><g transform="translate(29.689222053245203 1070.577201073037) rotate(0 60.703125 32.199999999999996)"><text x="60.703125" y="25.760546874999996" font-family="Helvetica, Segoe UI Emoji" font-size="28px" fill="#1e1e1e" text-anchor="middle" style="white-space: pre;" direction="ltr" dominant-baseline="alphabetic">Positional</text><text x="60.703125" y="57.96054687499999" font-family="Helvetica, Segoe UI Emoji" font-size="28px" fill="#1e1e1e" text-anchor="middle" style="white-space: pre;" direction="ltr" dominant-baseline="alphabetic">Encoding</text></g><g stroke-linecap="round"><g transform="translate(162.27753992433895 1105.416556541787) rotate(0 36.212493896484375 -0.06585693359375)"><path d="M0 0 C12.07 -0.02, 60.35 -0.11, 72.42 -0.13 M0 0 C12.07 -0.02, 60.35 -0.11, 72.42 -0.13" stroke="#1e1e1e" stroke-width="2" fill="none"/></g><g transform="translate(162.27753992433895 1105.416556541787) rotate(0 36.212493896484375 -0.06585693359375)"><path d="M72.42 -0.13 L58.84 6.23 L58.82 -6.45 L72.42 -0.13" stroke="none" stroke-width="0" fill="#1e1e1e" fill-rule="evenodd"/><path d="M72.42 -0.13 C68.05 1.92, 63.67 3.97, 58.84 6.23 M72.42 -0.13 C68.09 1.9, 63.76 3.93, 58.84 6.23 M58.84 6.23 C58.84 3.4, 58.83 0.56, 58.82 -6.45 M58.84 6.23 C58.83 2.22, 58.83 -1.79, 58.82 -6.45 M58.82 -6.45 C64.1 -4, 69.38 -1.54, 72.42 -0.13 M58.82 -6.45 C63 -4.51, 67.18 -2.57, 72.42 -0.13 M72.42 -0.13 C72.42 -0.13, 72.42 -0.13, 72.42 -0.13 M72.42 -0.13 C72.42 -0.13, 72.42 -0.13, 72.42 -0.13" stroke="#1e1e1e" stroke-width="2" fill="none"/></g></g><mask/><g transform="translate(197.20625086183895 886.1354286120995) rotate(0 67.689453125 32.199999999999996)"><text x="67.689453125" y="25.760546874999996" font-family="Helvetica, Segoe UI Emoji" font-size="28px" fill="#1e1e1e" text-anchor="middle" style="white-space: pre;" direction="ltr" dominant-baseline="alphabetic">Multi-Head</text><text x="67.689453125" y="57.96054687499999" font-family="Helvetica, Segoe UI Emoji" font-size="28px" fill="#1e1e1e" text-anchor="middle" style="white-space: pre;" direction="ltr" dominant-baseline="alphabetic">Attention</text></g><g stroke-linecap="round"><g transform="translate(261.37759265165397 1083.354788963662) rotate(0 0.5686300876642747 -59.935333251953125)"><path d="M0 0 C0.19 -19.98, 0.95 -99.89, 1.14 -119.87 M0 0 C0.19 -19.98, 0.95 -99.89, 1.14 -119.87" stroke="#1e1e1e" stroke-width="2" fill="none"/></g><g transform="translate(261.37759265165397 1083.354788963662) rotate(0 0.5686300876642747 -59.935333251953125)"><path d="M1.14 -119.87 L7.35 -106.22 L-5.33 -106.34 L1.14 -119.87" stroke="none" stroke-width="0" fill="#1e1e1e" fill-rule="evenodd"/><path d="M1.14 -119.87 C3.55 -114.57, 5.96 -109.27, 7.35 -106.22 M1.14 -119.87 C3.28 -115.17, 5.42 -110.46, 7.35 -106.22 M7.35 -106.22 C2.95 -106.26, -1.45 -106.3, -5.33 -106.34 M7.35 -106.22 C2.77 -106.26, -1.81 -106.3, -5.33 -106.34 M-5.33 -106.34 C-3.48 -110.21, -1.63 -114.08, 1.14 -119.87 M-5.33 -106.34 C-2.84 -111.55, -0.35 -116.76, 1.14 -119.87 M1.14 -119.87 C1.14 -119.87, 1.14 -119.87, 1.14 -119.87 M1.14 -119.87 C1.14 -119.87, 1.14 -119.87, 1.14 -119.87" stroke="#1e1e1e" stroke-width="2" fill="none"/></g></g><mask/><g stroke-linecap="round"><g transform="translate(263.42353601808895 1004.265189354287) rotate(0 33.12353515625 -20.456329345703125)"><path d="M0 0 C17.61 -0.14, 35.22 -0.27, 65.83 -0.51 M0 0 C19.83 -0.15, 39.66 -0.3, 65.83 -0.51 M65.83 -0.51 C65.98 -14.53, 66.12 -28.55, 66.25 -40.91 M65.83 -0.51 C65.98 -14.63, 66.12 -28.76, 66.25 -40.91" stroke="#1e1e1e" stroke-width="2" fill="none"/></g><g transform="translate(263.42353601808895 1004.265189354287) rotate(0 33.12353515625 -20.456329345703125)"><path d="M66.25 -40.91 L72.45 -27.25 L59.77 -27.38 L66.25 -40.91" stroke="none" stroke-width="0" fill="#1e1e1e" fill-rule="evenodd"/><path d="M66.25 -40.91 C67.91 -37.26, 69.56 -33.61, 72.45 -27.25 M66.25 -40.91 C68.11 -36.8, 69.98 -32.68, 72.45 -27.25 M72.45 -27.25 C68.05 -27.3, 63.65 -27.34, 59.77 -27.38 M72.45 -27.25 C68.01 -27.3, 63.58 -27.34, 59.77 -27.38 M59.77 -27.38 C61.88 -31.79, 63.99 -36.19, 66.25 -40.91 M59.77 -27.38 C61.14 -30.24, 62.51 -33.11, 66.25 -40.91 M66.25 -40.91 C66.25 -40.91, 66.25 -40.91, 66.25 -40.91 M66.25 -40.91 C66.25 -40.91, 66.25 -40.91, 66.25 -40.91" stroke="#1e1e1e" stroke-width="2" fill="none"/></g></g><mask/><g stroke-linecap="round"><g transform="translate(261.7899186169659 1004.1679489539727) rotate(0 -31.3617922519376 -19.334625244140625)"><path d="M0 0 C-16.74 -0.33, -33.47 -0.66, -62.23 -1.23 M0 0 C-24.86 -0.49, -49.72 -0.98, -62.23 -1.23 M-62.23 -1.23 C-62.4 -14.33, -62.57 -27.43, -62.72 -38.67 M-62.23 -1.23 C-62.38 -12.56, -62.53 -23.9, -62.72 -38.67" stroke="#1e1e1e" stroke-width="2" fill="none"/></g><g transform="translate(261.7899186169659 1004.1679489539727) rotate(0 -31.3617922519376 -19.334625244140625)"><path d="M-62.72 -38.67 L-56.2 -25.16 L-68.88 -24.99 L-62.72 -38.67" stroke="none" stroke-width="0" fill="#1e1e1e" fill-rule="evenodd"/><path d="M-62.72 -38.67 C-60.97 -35.04, -59.22 -31.4, -56.2 -25.16 M-62.72 -38.67 C-60.12 -33.27, -57.51 -27.87, -56.2 -25.16 M-56.2 -25.16 C-60.64 -25.1, -65.08 -25.04, -68.88 -24.99 M-56.2 -25.16 C-60.04 -25.11, -63.88 -25.06, -68.88 -24.99 M-68.88 -24.99 C-67.18 -28.77, -65.48 -32.55, -62.72 -38.67 M-68.88 -24.99 C-67.48 -28.1, -66.08 -31.22, -62.72 -38.67 M-62.72 -38.67 C-62.72 -38.67, -62.72 -38.67, -62.72 -38.67 M-62.72 -38.67 C-62.72 -38.67, -62.72 -38.67, -62.72 -38.67" stroke="#1e1e1e" stroke-width="2" fill="none"/></g></g><mask/><g stroke-linecap="round" transform="translate(176.3157975232159 793.2825119422539) rotate(0 90.04531860351562 26.375)"><path d="M13.19 0 C62.48 0, 111.78 0, 166.9 0 C175.69 0, 180.09 4.4, 180.09 13.19 C180.09 23.11, 180.09 33.02, 180.09 39.56 C180.09 48.35, 175.69 52.75, 166.9 52.75 C119.8 52.75, 72.7 52.75, 13.19 52.75 C4.4 52.75, 0 48.35, 0 39.56 C0 30.01, 0 20.46, 0 13.19 C0 4.4, 4.4 0, 13.19 0" stroke="none" stroke-width="0" fill="#ffec99"/><path d="M13.19 0 C55.65 0, 98.11 0, 166.9 0 M13.19 0 C71.96 0, 130.73 0, 166.9 0 M166.9 0 C175.69 0, 180.09 4.4, 180.09 13.19 M166.9 0 C175.69 0, 180.09 4.4, 180.09 13.19 M180.09 13.19 C180.09 23.56, 180.09 33.92, 180.09 39.56 M180.09 13.19 C180.09 19.45, 180.09 25.71, 180.09 39.56 M180.09 39.56 C180.09 48.35, 175.69 52.75, 166.9 52.75 M180.09 39.56 C180.09 48.35, 175.69 52.75, 166.9 52.75 M166.9 52.75 C112.08 52.75, 57.25 52.75, 13.19 52.75 M166.9 52.75 C129.41 52.75, 91.91 52.75, 13.19 52.75 M13.19 52.75 C4.4 52.75, 0 48.35, 0 39.56 M13.19 52.75 C4.4 52.75, 0 48.35, 0 39.56 M0 39.56 C0 33.93, 0 28.29, 0 13.19 M0 39.56 C0 32.86, 0 26.16, 0 13.19 M0 13.19 C0 4.4, 4.4 0, 13.19 0 M0 13.19 C0 4.4, 4.4 0, 13.19 0" stroke="#1e1e1e" stroke-width="2" fill="none"/></g><g transform="translate(191.4183365857159 801.6500656531914) rotate(0 76.248046875 16.099999999999994)"><text x="76.248046875" y="25.760546874999996" font-family="Helvetica, Segoe UI Emoji" font-size="28px" fill="#1e1e1e" text-anchor="middle" style="white-space: pre;" direction="ltr" dominant-baseline="alphabetic">Add &amp; Norm</text></g><g stroke-linecap="round"><g transform="translate(263.20657511110653 846.5871632264718) rotate(0 0.037017822265625 14.4462890625)"><path d="M0 0 C0.01 4.82, 0.06 24.08, 0.07 28.89 M0 0 C0.01 4.82, 0.06 24.08, 0.07 28.89" stroke="#1e1e1e" stroke-width="2" fill="none"/></g></g><mask/><g stroke-linecap="round"><g transform="translate(260.9257828747783 1023.7768092066347) rotate(0 -78.302261352539 -101.17369800860021)"><path d="M0 0 C-41.85 -0.06, -83.71 -0.11, -156.6 -0.21 M0 0 C-42.95 -0.06, -85.9 -0.12, -156.6 -0.21 M-156.6 -0.21 C-156.59 -37.36, -156.58 -74.5, -156.57 -105.98 M-156.6 -0.21 C-156.6 -30.7, -156.59 -61.18, -156.57 -105.98 M-156.57 -105.98 C-156.34 -137.75, -156.1 -169.51, -155.86 -201.58 M-156.57 -105.98 C-156.38 -131.92, -156.19 -157.87, -155.86 -201.58 M-155.86 -201.58 C-136.22 -201.81, -116.57 -202.04, -90.16 -202.35 M-155.86 -201.58 C-140.84 -201.76, -125.81 -201.93, -90.16 -202.35" stroke="#1e1e1e" stroke-width="2" fill="none"/></g><g transform="translate(260.9257828747783 1023.7768092066347) rotate(0 -78.302261352539 -101.17369800860021)"><path d="M-90.16 -202.35 L-103.68 -195.85 L-103.83 -208.53 L-90.16 -202.35" stroke="none" stroke-width="0" fill="#1e1e1e" fill-rule="evenodd"/><path d="M-90.16 -202.35 C-93.78 -200.61, -97.39 -198.87, -103.68 -195.85 M-90.16 -202.35 C-93.87 -200.57, -97.58 -198.78, -103.68 -195.85 M-103.68 -195.85 C-103.73 -200.3, -103.79 -204.75, -103.83 -208.53 M-103.68 -195.85 C-103.72 -199.5, -103.77 -203.16, -103.83 -208.53 M-103.83 -208.53 C-99.29 -206.47, -94.75 -204.42, -90.16 -202.35 M-103.83 -208.53 C-100.12 -206.85, -96.41 -205.17, -90.16 -202.35 M-90.16 -202.35 C-90.16 -202.35, -90.16 -202.35, -90.16 -202.35 M-90.16 -202.35 C-90.16 -202.35, -90.16 -202.35, -90.16 -202.35" stroke="#1e1e1e" stroke-width="2" fill="none"/></g></g><mask/><g stroke-linecap="round" transform="translate(178.71920938845028 632.9147389100656) rotate(0 87.65472412109375 45.6436767578125)"><path d="M22.82 0 C65.5 0, 108.18 0, 152.49 0 C167.7 0, 175.31 7.61, 175.31 22.82 C175.31 40.05, 175.31 57.28, 175.31 68.47 C175.31 83.68, 167.7 91.29, 152.49 91.29 C117.11 91.29, 81.73 91.29, 22.82 91.29 C7.61 91.29, 0 83.68, 0 68.47 C0 54.43, 0 40.39, 0 22.82 C0 7.61, 7.61 0, 22.82 0" stroke="none" stroke-width="0" fill="#b2f2bb"/><path d="M22.82 0 C50.21 0, 77.59 0, 152.49 0 M22.82 0 C63.58 0, 104.34 0, 152.49 0 M152.49 0 C167.7 0, 175.31 7.61, 175.31 22.82 M152.49 0 C167.7 0, 175.31 7.61, 175.31 22.82 M175.31 22.82 C175.31 36.71, 175.31 50.61, 175.31 68.47 M175.31 22.82 C175.31 36.82, 175.31 50.81, 175.31 68.47 M175.31 68.47 C175.31 83.68, 167.7 91.29, 152.49 91.29 M175.31 68.47 C175.31 83.68, 167.7 91.29, 152.49 91.29 M152.49 91.29 C118.38 91.29, 84.28 91.29, 22.82 91.29 M152.49 91.29 C124.35 91.29, 96.21 91.29, 22.82 91.29 M22.82 91.29 C7.61 91.29, 0 83.68, 0 68.47 M22.82 91.29 C7.61 91.29, 0 83.68, 0 68.47 M0 68.47 C0 51.44, 0 34.42, 0 22.82 M0 68.47 C0 50.72, 0 32.97, 0 22.82 M0 22.82 C0 7.61, 7.61 0, 22.82 0 M0 22.82 C0 7.61, 7.61 0, 22.82 0" stroke="#1e1e1e" stroke-width="2" fill="none"/></g><g transform="translate(210.59567423220028 644.5562353564632) rotate(0 51.3447265625 32.19999999999999)"><text x="51.3447265625" y="25.760546874999996" font-family="Helvetica, Segoe UI Emoji" font-size="28px" fill="#1e1e1e" text-anchor="middle" style="white-space: pre;" direction="ltr" dominant-baseline="alphabetic">Feed</text><text x="51.3447265625" y="57.96054687499999" font-family="Helvetica, Segoe UI Emoji" font-size="28px" fill="#1e1e1e" text-anchor="middle" style="white-space: pre;" direction="ltr" dominant-baseline="alphabetic">Forward</text></g><g stroke-linecap="round"><g transform="translate(263.1508125819461 788.475633888112) rotate(0 0.1532082588371111 -30.52691650390625)"><path d="M0 0 C0.05 -10.18, 0.26 -50.88, 0.31 -61.05 M0 0 C0.05 -10.18, 0.26 -50.88, 0.31 -61.05" stroke="#1e1e1e" stroke-width="2" fill="none"/></g><g transform="translate(263.1508125819461 788.475633888112) rotate(0 0.1532082588371111 -30.52691650390625)"><path d="M0.31 -61.05 L6.58 -47.43 L-6.1 -47.49 L0.31 -61.05" stroke="none" stroke-width="0" fill="#1e1e1e" fill-rule="evenodd"/><path d="M0.31 -61.05 C2.12 -57.12, 3.93 -53.18, 6.58 -47.43 M0.31 -61.05 C2.33 -56.66, 4.35 -52.26, 6.58 -47.43 M6.58 -47.43 C3.93 -47.44, 1.28 -47.45, -6.1 -47.49 M6.58 -47.43 C2.13 -47.45, -2.33 -47.47, -6.1 -47.49 M-6.1 -47.49 C-3.72 -52.54, -1.33 -57.58, 0.31 -61.05 M-6.1 -47.49 C-4.08 -51.78, -2.05 -56.06, 0.31 -61.05 M0.31 -61.05 C0.31 -61.05, 0.31 -61.05, 0.31 -61.05 M0.31 -61.05 C0.31 -61.05, 0.31 -61.05, 0.31 -61.05" stroke="#1e1e1e" stroke-width="2" fill="none"/></g></g><mask/><g stroke-linecap="round" transform="translate(177.23617716188778 554.1575491713152) rotate(0 90.04531860351562 26.375)"><path d="M13.19 0 C65.13 0, 117.08 0, 166.9 0 C175.69 0, 180.09 4.4, 180.09 13.19 C180.09 18.59, 180.09 24, 180.09 39.56 C180.09 48.35, 175.69 52.75, 166.9 52.75 C106.68 52.75, 46.45 52.75, 13.19 52.75 C4.4 52.75, 0 48.35, 0 39.56 C0 33.65, 0 27.73, 0 13.19 C0 4.4, 4.4 0, 13.19 0" stroke="none" stroke-width="0" fill="#ffec99"/><path d="M13.19 0 C54.29 0, 95.39 0, 166.9 0 M13.19 0 C72.78 0, 132.37 0, 166.9 0 M166.9 0 C175.69 0, 180.09 4.4, 180.09 13.19 M166.9 0 C175.69 0, 180.09 4.4, 180.09 13.19 M180.09 13.19 C180.09 21.75, 180.09 30.32, 180.09 39.56 M180.09 13.19 C180.09 19.14, 180.09 25.08, 180.09 39.56 M180.09 39.56 C180.09 48.35, 175.69 52.75, 166.9 52.75 M180.09 39.56 C180.09 48.35, 175.69 52.75, 166.9 52.75 M166.9 52.75 C114.64 52.75, 62.37 52.75, 13.19 52.75 M166.9 52.75 C131.47 52.75, 96.03 52.75, 13.19 52.75 M13.19 52.75 C4.4 52.75, 0 48.35, 0 39.56 M13.19 52.75 C4.4 52.75, 0 48.35, 0 39.56 M0 39.56 C0 31.9, 0 24.24, 0 13.19 M0 39.56 C0 33.31, 0 27.06, 0 13.19 M0 13.19 C0 4.4, 4.4 0, 13.19 0 M0 13.19 C0 4.4, 4.4 0, 13.19 0" stroke="#1e1e1e" stroke-width="2" fill="none"/></g><g transform="translate(192.47897501345028 562.3914358900652) rotate(0 76.248046875 16.099999999999994)"><text x="76.248046875" y="25.760546874999996" font-family="Helvetica, Segoe UI Emoji" font-size="28px" fill="#1e1e1e" text-anchor="middle" style="white-space: pre;" direction="ltr" dominant-baseline="alphabetic">Add &amp; Norm</text></g><g stroke-linecap="round"><g transform="translate(265.03058023805966 631.0689108656511) rotate(0 -0.22283935546875 -11.399154663085938)"><path d="M0 0 C-0.07 -3.8, -0.37 -19, -0.45 -22.8 M0 0 C-0.07 -3.8, -0.37 -19, -0.45 -22.8" stroke="#1e1e1e" stroke-width="2" fill="none"/></g></g><mask/><g stroke-linecap="round"><g transform="translate(261.2058121716534 763.3033774183855) rotate(0 -78.57431030273438 -92.4024429321289)"><path d="M0 0 C-31.69 -0.14, -63.38 -0.28, -157.15 -0.69 M0 0 C-43.55 -0.19, -87.11 -0.38, -157.15 -0.69 M-157.15 -0.69 C-156.92 -31.88, -156.69 -63.06, -156.45 -96.85 M-157.15 -0.69 C-156.97 -24.73, -156.8 -48.76, -156.45 -96.85 M-156.45 -96.85 C-156.23 -124.18, -156 -151.52, -155.74 -184.16 M-156.45 -96.85 C-156.26 -120.41, -156.07 -143.97, -155.74 -184.16 M-155.74 -184.16 C-141.76 -184.29, -127.79 -184.43, -90.04 -184.8 M-155.74 -184.16 C-136.97 -184.34, -118.2 -184.53, -90.04 -184.8" stroke="#1e1e1e" stroke-width="2" fill="none"/></g><g transform="translate(261.2058121716534 763.3033774183855) rotate(0 -78.57431030273438 -92.4024429321289)"><path d="M-90.04 -184.8 L-103.57 -178.33 L-103.69 -191.01 L-90.04 -184.8" stroke="none" stroke-width="0" fill="#1e1e1e" fill-rule="evenodd"/><path d="M-90.04 -184.8 C-92.77 -183.5, -95.49 -182.19, -103.57 -178.33 M-90.04 -184.8 C-93.79 -183.01, -97.54 -181.22, -103.57 -178.33 M-103.57 -178.33 C-103.61 -182.44, -103.65 -186.55, -103.69 -191.01 M-103.57 -178.33 C-103.6 -181.5, -103.63 -184.67, -103.69 -191.01 M-103.69 -191.01 C-99.42 -189.07, -95.14 -187.12, -90.04 -184.8 M-103.69 -191.01 C-100.01 -189.34, -96.32 -187.66, -90.04 -184.8 M-90.04 -184.8 C-90.04 -184.8, -90.04 -184.8, -90.04 -184.8 M-90.04 -184.8 C-90.04 -184.8, -90.04 -184.8, -90.04 -184.8" stroke="#1e1e1e" stroke-width="2" fill="none"/></g></g><mask/><g transform="translate(10 759.7065745910006) rotate(0 20.00390625 20.700000000000003)"><text x="20.00390625" y="33.120703125" font-family="Helvetica, Segoe UI Emoji" font-size="36px" fill="#1e1e1e" text-anchor="middle" style="white-space: pre;" direction="ltr" dominant-baseline="alphabetic">N*</text></g><g transform="translate(679.0975834881817 1289.5455990976754) rotate(0 85.5859375 32.19999999999999)"><text x="85.5859375" y="25.760546874999996" font-family="Helvetica, Segoe UI Emoji" font-size="28px" fill="#1e1e1e" text-anchor="middle" style="white-space: pre;" direction="ltr" dominant-baseline="alphabetic">Outputs</text><text x="85.5859375" y="57.96054687499999" font-family="Helvetica, Segoe UI Emoji" font-size="28px" fill="#1e1e1e" text-anchor="middle" style="white-space: pre;" direction="ltr" dominant-baseline="alphabetic">(shifted right) </text></g><g stroke-linecap="round"><g transform="translate(762.1995287738544 1285.71956963804) rotate(0 0.03749781614806125 -17.259572347005133)"><path d="M0 0 C0.01 -5.75, 0.06 -28.77, 0.07 -34.52 M0 0 C0.01 -5.75, 0.06 -28.77, 0.07 -34.52" stroke="#1e1e1e" stroke-width="2" fill="none"/></g><g transform="translate(762.1995287738544 1285.71956963804) rotate(0 0.03749781614806125 -17.259572347005133)"><path d="M0.07 -34.52 L6.38 -20.91 L-6.29 -20.94 L0.07 -34.52" stroke="none" stroke-width="0" fill="#1e1e1e" fill-rule="evenodd"/><path d="M0.07 -34.52 C1.48 -31.49, 2.88 -28.46, 6.38 -20.91 M0.07 -34.52 C2.33 -29.65, 4.59 -24.79, 6.38 -20.91 M6.38 -20.91 C1.57 -20.92, -3.24 -20.93, -6.29 -20.94 M6.38 -20.91 C3.62 -20.92, 0.86 -20.92, -6.29 -20.94 M-6.29 -20.94 C-4.17 -25.47, -2.04 -30, 0.07 -34.52 M-6.29 -20.94 C-4.52 -24.71, -2.75 -28.49, 0.07 -34.52 M0.07 -34.52 C0.07 -34.52, 0.07 -34.52, 0.07 -34.52 M0.07 -34.52 C0.07 -34.52, 0.07 -34.52, 0.07 -34.52" stroke="#1e1e1e" stroke-width="2" fill="none"/></g></g><mask/><g stroke-linecap="round" transform="translate(669.4978825604474 1159.237595354186) rotate(0 94.39114379882812 42.02093505859375)"><path d="M21.01 0 C71.77 0, 122.52 0, 167.77 0 C181.78 0, 188.78 7, 188.78 21.01 C188.78 32.45, 188.78 43.89, 188.78 63.03 C188.78 77.04, 181.78 84.04, 167.77 84.04 C136.4 84.04, 105.04 84.04, 21.01 84.04 C7 84.04, 0 77.04, 0 63.03 C0 50.1, 0 37.17, 0 21.01 C0 7, 7 0, 21.01 0" stroke="none" stroke-width="0" fill="#ffc9c9"/><path d="M21.01 0 C54.05 0, 87.08 0, 167.77 0 M21.01 0 C68.47 0, 115.94 0, 167.77 0 M167.77 0 C181.78 0, 188.78 7, 188.78 21.01 M167.77 0 C181.78 0, 188.78 7, 188.78 21.01 M188.78 21.01 C188.78 32.55, 188.78 44.09, 188.78 63.03 M188.78 21.01 C188.78 32.8, 188.78 44.59, 188.78 63.03 M188.78 63.03 C188.78 77.04, 181.78 84.04, 167.77 84.04 M188.78 63.03 C188.78 77.04, 181.78 84.04, 167.77 84.04 M167.77 84.04 C109.55 84.04, 51.33 84.04, 21.01 84.04 M167.77 84.04 C128.94 84.04, 90.11 84.04, 21.01 84.04 M21.01 84.04 C7 84.04, 0 77.04, 0 63.03 M21.01 84.04 C7 84.04, 0 77.04, 0 63.03 M0 63.03 C0 49.7, 0 36.37, 0 21.01 M0 63.03 C0 48.68, 0 34.33, 0 21.01 M0 21.01 C0 7, 7 0, 21.01 0 M0 21.01 C0 7, 7 0, 21.01 0" stroke="#1e1e1e" stroke-width="2" fill="none"/></g><g transform="translate(693.3324772870099 1166.650681291686) rotate(0 70.8271484375 32.19999999999999)"><text x="70.8271484375" y="25.760546874999996" font-family="Helvetica, Segoe UI Emoji" font-size="28px" fill="#1e1e1e" text-anchor="middle" style="white-space: pre;" direction="ltr" dominant-baseline="alphabetic">Output</text><text x="70.8271484375" y="57.96054687499999" font-family="Helvetica, Segoe UI Emoji" font-size="28px" fill="#1e1e1e" text-anchor="middle" style="white-space: pre;" direction="ltr" dominant-baseline="alphabetic">Embedding</text></g><g stroke-linecap="round"><g transform="translate(762.0853154217755 1153.835526262389) rotate(0 0.222900390625 -11.190399169921875)"><path d="M0 0 C0.07 -3.73, 0.37 -18.65, 0.45 -22.38 M0 0 C0.07 -3.73, 0.37 -18.65, 0.45 -22.38" stroke="#1e1e1e" stroke-width="2" fill="none"/></g><g transform="translate(762.0853154217755 1153.835526262389) rotate(0 0.222900390625 -11.190399169921875)"><path d="M0.45 -22.38 L4.97 -12.14 L-4.49 -12.33 L0.45 -22.38" stroke="none" stroke-width="0" fill="#1e1e1e" fill-rule="evenodd"/><path d="M0.45 -22.38 C1.61 -19.74, 2.78 -17.11, 4.97 -12.14 M0.45 -22.38 C1.67 -19.61, 2.9 -16.84, 4.97 -12.14 M4.97 -12.14 C1.47 -12.21, -2.04 -12.28, -4.49 -12.33 M4.97 -12.14 C3.07 -12.18, 1.16 -12.22, -4.49 -12.33 M-4.49 -12.33 C-2.82 -15.72, -1.16 -19.11, 0.45 -22.38 M-4.49 -12.33 C-3.08 -15.19, -1.68 -18.05, 0.45 -22.38 M0.45 -22.38 C0.45 -22.38, 0.45 -22.38, 0.45 -22.38 M0.45 -22.38 C0.45 -22.38, 0.45 -22.38, 0.45 -22.38" stroke="#1e1e1e" stroke-width="2" fill="none"/></g></g><mask/><g stroke-linecap="round" transform="translate(743.0291630780255 1091.592118059264) rotate(0 19.9285888671875 16.316680908203125)"><path d="M39.86 16.32 C39.86 17.26, 39.75 18.22, 39.55 19.15 C39.35 20.08, 39.05 21.01, 38.66 21.9 C38.26 22.78, 37.76 23.66, 37.19 24.48 C36.61 25.29, 35.94 26.08, 35.19 26.8 C34.45 27.53, 33.62 28.21, 32.74 28.82 C31.85 29.42, 30.89 29.98, 29.89 30.45 C28.89 30.92, 27.83 31.33, 26.74 31.65 C25.66 31.97, 24.53 32.22, 23.39 32.39 C22.25 32.55, 21.08 32.63, 19.93 32.63 C18.78 32.63, 17.6 32.55, 16.47 32.39 C15.33 32.22, 14.2 31.97, 13.11 31.65 C12.03 31.33, 10.96 30.92, 9.96 30.45 C8.97 29.98, 8 29.42, 7.12 28.82 C6.24 28.21, 5.4 27.53, 4.66 26.8 C3.92 26.08, 3.25 25.29, 2.67 24.48 C2.09 23.66, 1.6 22.78, 1.2 21.9 C0.81 21.01, 0.5 20.08, 0.3 19.15 C0.1 18.22, 0 17.26, 0 16.32 C0 15.37, 0.1 14.41, 0.3 13.48 C0.5 12.55, 0.81 11.62, 1.2 10.74 C1.6 9.85, 2.09 8.98, 2.67 8.16 C3.25 7.34, 3.92 6.55, 4.66 5.83 C5.4 5.11, 6.24 4.42, 7.12 3.82 C8 3.21, 8.97 2.66, 9.96 2.19 C10.96 1.71, 12.03 1.31, 13.11 0.98 C14.2 0.66, 15.33 0.41, 16.47 0.25 C17.6 0.08, 18.78 0, 19.93 0 C21.08 0, 22.25 0.08, 23.39 0.25 C24.53 0.41, 25.66 0.66, 26.74 0.98 C27.83 1.31, 28.89 1.71, 29.89 2.19 C30.89 2.66, 31.85 3.21, 32.74 3.82 C33.62 4.42, 34.45 5.11, 35.19 5.83 C35.94 6.55, 36.61 7.34, 37.19 8.16 C37.76 8.98, 38.26 9.85, 38.66 10.74 C39.05 11.62, 39.35 12.55, 39.55 13.48 C39.75 14.41, 39.81 15.84, 39.86 16.32 C39.91 16.79, 39.91 15.84, 39.86 16.32" stroke="#1e1e1e" stroke-width="2" fill="none"/></g><g transform="translate(754.5396611249005 1089.5391456471548) rotate(0 8.17578125 16.099999999999994)"><text x="8.17578125" y="25.760546874999996" font-family="Helvetica, Segoe UI Emoji" font-size="28px" fill="#1e1e1e" text-anchor="middle" style="white-space: pre;" direction="ltr" dominant-baseline="alphabetic">+</text></g><g stroke-linecap="round"><g transform="translate(861.0051762616192 1107.5676124440297) rotate(0 -35.85009765625 -0.120513916015625)"><path d="M0 0 C-11.95 -0.04, -59.75 -0.2, -71.7 -0.24 M0 0 C-11.95 -0.04, -59.75 -0.2, -71.7 -0.24" stroke="#1e1e1e" stroke-width="2" fill="none"/></g><g transform="translate(861.0051762616192 1107.5676124440297) rotate(0 -35.85009765625 -0.120513916015625)"><path d="M-71.7 -0.24 L-58.08 -6.53 L-58.13 6.14 L-71.7 -0.24" stroke="none" stroke-width="0" fill="#1e1e1e" fill-rule="evenodd"/><path d="M-71.7 -0.24 C-66.34 -2.72, -60.97 -5.2, -58.08 -6.53 M-71.7 -0.24 C-66.58 -2.61, -61.46 -4.98, -58.08 -6.53 M-58.08 -6.53 C-58.1 -1.57, -58.12 3.4, -58.13 6.14 M-58.08 -6.53 C-58.1 -2.65, -58.11 1.24, -58.13 6.14 M-58.13 6.14 C-62.45 4.11, -66.77 2.08, -71.7 -0.24 M-58.13 6.14 C-62.4 4.13, -66.67 2.12, -71.7 -0.24 M-71.7 -0.24 C-71.7 -0.24, -71.7 -0.24, -71.7 -0.24 M-71.7 -0.24 C-71.7 -0.24, -71.7 -0.24, -71.7 -0.24" stroke="#1e1e1e" stroke-width="2" fill="none"/></g></g><mask/><g transform="translate(875.8429448163067 1076.1650977955921) rotate(0 60.703125 32.19999999999999)"><text x="60.703125" y="25.760546874999996" font-family="Helvetica, Segoe UI Emoji" font-size="28px" fill="#1e1e1e" text-anchor="middle" style="white-space: pre;" direction="ltr" dominant-baseline="alphabetic">Positional</text><text x="60.703125" y="57.96054687499999" font-family="Helvetica, Segoe UI Emoji" font-size="28px" fill="#1e1e1e" text-anchor="middle" style="white-space: pre;" direction="ltr" dominant-baseline="alphabetic">Encoding</text></g><g stroke-linecap="round" transform="translate(665.901355460838 846.3391273366078) rotate(0 96.068359375 58.684722900390625)"><path d="M29.34 0 C64.69 0, 100.04 0, 162.79 0 C182.36 0, 192.14 9.78, 192.14 29.34 C192.14 47.41, 192.14 65.47, 192.14 88.03 C192.14 107.59, 182.36 117.37, 162.79 117.37 C112.73 117.37, 62.67 117.37, 29.34 117.37 C9.78 117.37, 0 107.59, 0 88.03 C0 73.19, 0 58.35, 0 29.34 C0 9.78, 9.78 0, 29.34 0" stroke="none" stroke-width="0" fill="#a5d8ff"/><path d="M29.34 0 C67.13 0, 104.92 0, 162.79 0 M29.34 0 C69.84 0, 110.34 0, 162.79 0 M162.79 0 C182.36 0, 192.14 9.78, 192.14 29.34 M162.79 0 C182.36 0, 192.14 9.78, 192.14 29.34 M192.14 29.34 C192.14 46.97, 192.14 64.6, 192.14 88.03 M192.14 29.34 C192.14 43.49, 192.14 57.65, 192.14 88.03 M192.14 88.03 C192.14 107.59, 182.36 117.37, 162.79 117.37 M192.14 88.03 C192.14 107.59, 182.36 117.37, 162.79 117.37 M162.79 117.37 C111.77 117.37, 60.75 117.37, 29.34 117.37 M162.79 117.37 C127.4 117.37, 92 117.37, 29.34 117.37 M29.34 117.37 C9.78 117.37, 0 107.59, 0 88.03 M29.34 117.37 C9.78 117.37, 0 107.59, 0 88.03 M0 88.03 C0 68.12, 0 48.22, 0 29.34 M0 88.03 C0 75.86, 0 63.7, 0 29.34 M0 29.34 C0 9.78, 9.78 0, 29.34 0 M0 29.34 C0 9.78, 9.78 0, 29.34 0" stroke="#1e1e1e" stroke-width="2" fill="none"/></g><g transform="translate(693.1212040936505 858.1182533131703) rotate(0 67.689453125 48.3)"><text x="67.689453125" y="25.760546874999996" font-family="Helvetica, Segoe UI Emoji" font-size="28px" fill="#1e1e1e" text-anchor="middle" style="white-space: pre;" direction="ltr" dominant-baseline="alphabetic">Masked</text><text x="67.689453125" y="57.96054687499999" font-family="Helvetica, Segoe UI Emoji" font-size="28px" fill="#1e1e1e" text-anchor="middle" style="white-space: pre;" direction="ltr" dominant-baseline="alphabetic">Multi-Head</text><text x="67.689453125" y="90.160546875" font-family="Helvetica, Segoe UI Emoji" font-size="28px" fill="#1e1e1e" text-anchor="middle" style="white-space: pre;" direction="ltr" dominant-baseline="alphabetic">Attention</text></g><g stroke-linecap="round"><g transform="translate(762.6634946752479 1086.8829946597416) rotate(0 0.33439127604162877 -59.47623358832465)"><path d="M0 0 C0.11 -19.83, 0.56 -99.13, 0.67 -118.95 M0 0 C0.11 -19.83, 0.56 -99.13, 0.67 -118.95" stroke="#1e1e1e" stroke-width="2" fill="none"/></g><g transform="translate(762.6634946752479 1086.8829946597416) rotate(0 0.33439127604162877 -59.47623358832465)"><path d="M0.67 -118.95 L6.93 -105.32 L-5.75 -105.39 L0.67 -118.95" stroke="none" stroke-width="0" fill="#1e1e1e" fill-rule="evenodd"/><path d="M0.67 -118.95 C2.34 -115.32, 4.01 -111.69, 6.93 -105.32 M0.67 -118.95 C2.5 -114.97, 4.32 -111, 6.93 -105.32 M6.93 -105.32 C3.66 -105.34, 0.4 -105.36, -5.75 -105.39 M6.93 -105.32 C2.32 -105.35, -2.29 -105.37, -5.75 -105.39 M-5.75 -105.39 C-3.38 -110.39, -1.02 -115.39, 0.67 -118.95 M-5.75 -105.39 C-3.2 -110.77, -0.66 -116.15, 0.67 -118.95 M0.67 -118.95 C0.67 -118.95, 0.67 -118.95, 0.67 -118.95 M0.67 -118.95 C0.67 -118.95, 0.67 -118.95, 0.67 -118.95" stroke="#1e1e1e" stroke-width="2" fill="none"/></g></g><mask/><g stroke-linecap="round"><g transform="translate(765.1100346600567 1009.1482093678578) rotate(0 33.12353515625 -20.456329345703125)"><path d="M0 0 C16.22 -0.12, 32.44 -0.25, 65.83 -0.51 M0 0 C22.26 -0.17, 44.52 -0.34, 65.83 -0.51 M65.83 -0.51 C65.96 -12.95, 66.09 -25.4, 66.25 -40.91 M65.83 -0.51 C65.93 -10.3, 66.03 -20.1, 66.25 -40.91" stroke="#1e1e1e" stroke-width="2" fill="none"/></g><g transform="translate(765.1100346600567 1009.1482093678578) rotate(0 33.12353515625 -20.456329345703125)"><path d="M66.25 -40.91 L72.45 -27.25 L59.77 -27.38 L66.25 -40.91" stroke="none" stroke-width="0" fill="#1e1e1e" fill-rule="evenodd"/><path d="M66.25 -40.91 C67.77 -37.55, 69.3 -34.18, 72.45 -27.25 M66.25 -40.91 C68.34 -36.29, 70.44 -31.68, 72.45 -27.25 M72.45 -27.25 C68.54 -27.29, 64.64 -27.33, 59.77 -27.38 M72.45 -27.25 C69.37 -27.29, 66.3 -27.32, 59.77 -27.38 M59.77 -27.38 C62.11 -32.28, 64.45 -37.17, 66.25 -40.91 M59.77 -27.38 C62.14 -32.33, 64.5 -37.27, 66.25 -40.91 M66.25 -40.91 C66.25 -40.91, 66.25 -40.91, 66.25 -40.91 M66.25 -40.91 C66.25 -40.91, 66.25 -40.91, 66.25 -40.91" stroke="#1e1e1e" stroke-width="2" fill="none"/></g></g><mask/><g stroke-linecap="round"><g transform="translate(762.2897221600567 1009.0927589284047) rotate(0 -31.36151123046875 -19.26458740234375)"><path d="M0 0 C-14.67 -0.29, -29.34 -0.58, -62.23 -1.23 M0 0 C-23.41 -0.46, -46.81 -0.92, -62.23 -1.23 M-62.23 -1.23 C-62.33 -8.78, -62.43 -16.33, -62.72 -38.53 M-62.23 -1.23 C-62.41 -14.73, -62.59 -28.23, -62.72 -38.53" stroke="#1e1e1e" stroke-width="2" fill="none"/></g><g transform="translate(762.2897221600567 1009.0927589284047) rotate(0 -31.36151123046875 -19.26458740234375)"><path d="M-62.72 -38.53 L-56.2 -25.02 L-68.88 -24.85 L-62.72 -38.53" stroke="none" stroke-width="0" fill="#1e1e1e" fill-rule="evenodd"/><path d="M-62.72 -38.53 C-61.19 -35.34, -59.65 -32.16, -56.2 -25.02 M-62.72 -38.53 C-60.27 -33.45, -57.82 -28.37, -56.2 -25.02 M-56.2 -25.02 C-58.77 -24.99, -61.34 -24.95, -68.88 -24.85 M-56.2 -25.02 C-60.79 -24.96, -65.38 -24.9, -68.88 -24.85 M-68.88 -24.85 C-66.88 -29.3, -64.88 -33.74, -62.72 -38.53 M-68.88 -24.85 C-66.47 -30.21, -64.06 -35.57, -62.72 -38.53 M-62.72 -38.53 C-62.72 -38.53, -62.72 -38.53, -62.72 -38.53 M-62.72 -38.53 C-62.72 -38.53, -62.72 -38.53, -62.72 -38.53" stroke="#1e1e1e" stroke-width="2" fill="none"/></g></g><mask/><g stroke-linecap="round" transform="translate(675.2415959393536 762.7729347096547) rotate(0 90.04531860351562 26.375)"><path d="M13.19 0 C52.84 0, 92.49 0, 166.9 0 C175.69 0, 180.09 4.4, 180.09 13.19 C180.09 19.94, 180.09 26.7, 180.09 39.56 C180.09 48.35, 175.69 52.75, 166.9 52.75 C124.4 52.75, 81.89 52.75, 13.19 52.75 C4.4 52.75, 0 48.35, 0 39.56 C0 30.04, 0 20.53, 0 13.19 C0 4.4, 4.4 0, 13.19 0" stroke="none" stroke-width="0" fill="#ffec99"/><path d="M13.19 0 C65.79 0, 118.39 0, 166.9 0 M13.19 0 C64.34 0, 115.48 0, 166.9 0 M166.9 0 C175.69 0, 180.09 4.4, 180.09 13.19 M166.9 0 C175.69 0, 180.09 4.4, 180.09 13.19 M180.09 13.19 C180.09 21.58, 180.09 29.96, 180.09 39.56 M180.09 13.19 C180.09 21.99, 180.09 30.79, 180.09 39.56 M180.09 39.56 C180.09 48.35, 175.69 52.75, 166.9 52.75 M180.09 39.56 C180.09 48.35, 175.69 52.75, 166.9 52.75 M166.9 52.75 C108.08 52.75, 49.26 52.75, 13.19 52.75 M166.9 52.75 C127.74 52.75, 88.59 52.75, 13.19 52.75 M13.19 52.75 C4.4 52.75, 0 48.35, 0 39.56 M13.19 52.75 C4.4 52.75, 0 48.35, 0 39.56 M0 39.56 C0 29.66, 0 19.76, 0 13.19 M0 39.56 C0 29.69, 0 19.82, 0 13.19 M0 13.19 C0 4.4, 4.4 0, 13.19 0 M0 13.19 C0 4.4, 4.4 0, 13.19 0" stroke="#1e1e1e" stroke-width="2" fill="none"/></g><g transform="translate(688.648914054588 773.0770484791859) rotate(0 76.248046875 16.099999999999994)"><text x="76.248046875" y="25.760546874999996" font-family="Helvetica, Segoe UI Emoji" font-size="28px" fill="#1e1e1e" text-anchor="middle" style="white-space: pre;" direction="ltr" dominant-baseline="alphabetic">Add &amp; Norm</text></g><g stroke-linecap="round"><g transform="translate(763.9748723065411 815.9668434010609) rotate(0 0.037017822265625 14.4462890625)"><path d="M0 0 C0.01 4.82, 0.06 24.08, 0.07 28.89 M0 0 C0.01 4.82, 0.06 24.08, 0.07 28.89" stroke="#1e1e1e" stroke-width="2" fill="none"/></g></g><mask/><g stroke-linecap="round"><g transform="translate(764.3581730877911 1027.8376011020284) rotate(0 77.47250366210938 -60.95149420459291)"><path d="M0 0 C52.56 -0.12, 105.12 -0.25, 154.95 -0.36 M0 0 C42.8 -0.1, 85.6 -0.2, 154.95 -0.36 M154.95 -0.36 C154.93 -23.49, 154.92 -46.62, 154.91 -64.2 M154.95 -0.36 C154.94 -13.27, 154.93 -26.17, 154.91 -64.2 M154.91 -64.2 C154.67 -84.01, 154.43 -103.83, 154.2 -121.9 M154.91 -64.2 C154.75 -77.74, 154.58 -91.28, 154.2 -121.9 M154.2 -121.9 C141.91 -121.84, 129.61 -121.78, 96.13 -121.62 M154.2 -121.9 C135.82 -121.81, 117.43 -121.72, 96.13 -121.62" stroke="#1e1e1e" stroke-width="2" fill="none"/></g><g transform="translate(764.3581730877911 1027.8376011020284) rotate(0 77.47250366210938 -60.95149420459291)"><path d="M96.13 -121.62 L109.69 -128.03 L109.75 -115.35 L96.13 -121.62" stroke="none" stroke-width="0" fill="#1e1e1e" fill-rule="evenodd"/><path d="M96.13 -121.62 C100.73 -123.79, 105.33 -125.97, 109.69 -128.03 M96.13 -121.62 C99.87 -123.39, 103.62 -125.16, 109.69 -128.03 M109.69 -128.03 C109.71 -123.43, 109.74 -118.84, 109.75 -115.35 M109.69 -128.03 C109.7 -125.46, 109.72 -122.9, 109.75 -115.35 M109.75 -115.35 C105.07 -117.5, 100.4 -119.66, 96.13 -121.62 M109.75 -115.35 C106.55 -116.82, 103.36 -118.29, 96.13 -121.62 M96.13 -121.62 C96.13 -121.62, 96.13 -121.62, 96.13 -121.62 M96.13 -121.62 C96.13 -121.62, 96.13 -121.62, 96.13 -121.62" stroke="#1e1e1e" stroke-width="2" fill="none"/></g></g><mask/><g stroke-linecap="round" transform="translate(676.772184725161 615.5678362396026) rotate(0 92.59259033203125 41.7977294921875)"><path d="M20.9 0 C70.72 0, 120.53 0, 164.29 0 C178.22 0, 185.19 6.97, 185.19 20.9 C185.19 34.73, 185.19 48.56, 185.19 62.7 C185.19 76.63, 178.22 83.6, 164.29 83.6 C127.97 83.6, 91.64 83.6, 20.9 83.6 C6.97 83.6, 0 76.63, 0 62.7 C0 51.12, 0 39.54, 0 20.9 C0 6.97, 6.97 0, 20.9 0" stroke="none" stroke-width="0" fill="#a5d8ff"/><path d="M20.9 0 C68.5 0, 116.1 0, 164.29 0 M20.9 0 C61.94 0, 102.98 0, 164.29 0 M164.29 0 C178.22 0, 185.19 6.97, 185.19 20.9 M164.29 0 C178.22 0, 185.19 6.97, 185.19 20.9 M185.19 20.9 C185.19 36.2, 185.19 51.5, 185.19 62.7 M185.19 20.9 C185.19 33.85, 185.19 46.8, 185.19 62.7 M185.19 62.7 C185.19 76.63, 178.22 83.6, 164.29 83.6 M185.19 62.7 C185.19 76.63, 178.22 83.6, 164.29 83.6 M164.29 83.6 C122.66 83.6, 81.04 83.6, 20.9 83.6 M164.29 83.6 C134.08 83.6, 103.88 83.6, 20.9 83.6 M20.9 83.6 C6.97 83.6, 0 76.63, 0 62.7 M20.9 83.6 C6.97 83.6, 0 76.63, 0 62.7 M0 62.7 C0 52.14, 0 41.58, 0 20.9 M0 62.7 C0 46.98, 0 31.25, 0 20.9 M0 20.9 C0 6.97, 6.97 0, 20.9 0 M0 20.9 C0 6.97, 6.97 0, 20.9 0" stroke="#1e1e1e" stroke-width="2" fill="none"/></g><g transform="translate(699.55127814964 625.8475420501494) rotate(0 67.689453125 32.19999999999999)"><text x="67.689453125" y="25.760546874999996" font-family="Helvetica, Segoe UI Emoji" font-size="28px" fill="#1e1e1e" text-anchor="middle" style="white-space: pre;" direction="ltr" dominant-baseline="alphabetic">Multi-Head</text><text x="67.689453125" y="57.96054687499999" font-family="Helvetica, Segoe UI Emoji" font-size="28px" fill="#1e1e1e" text-anchor="middle" style="white-space: pre;" direction="ltr" dominant-baseline="alphabetic">Attention</text></g><g stroke-linecap="round" transform="translate(680.3663246719925 535.9063541703752) rotate(0 90.04531860351562 26.375)"><path d="M13.19 0 C62.31 0, 111.43 0, 166.9 0 C175.69 0, 180.09 4.4, 180.09 13.19 C180.09 22.49, 180.09 31.79, 180.09 39.56 C180.09 48.35, 175.69 52.75, 166.9 52.75 C113.62 52.75, 60.34 52.75, 13.19 52.75 C4.4 52.75, 0 48.35, 0 39.56 C0 29.89, 0 20.22, 0 13.19 C0 4.4, 4.4 0, 13.19 0" stroke="none" stroke-width="0" fill="#ffec99"/><path d="M13.19 0 C54.01 0, 94.84 0, 166.9 0 M13.19 0 C67.24 0, 121.29 0, 166.9 0 M166.9 0 C175.69 0, 180.09 4.4, 180.09 13.19 M166.9 0 C175.69 0, 180.09 4.4, 180.09 13.19 M180.09 13.19 C180.09 20.23, 180.09 27.28, 180.09 39.56 M180.09 13.19 C180.09 21.23, 180.09 29.27, 180.09 39.56 M180.09 39.56 C180.09 48.35, 175.69 52.75, 166.9 52.75 M180.09 39.56 C180.09 48.35, 175.69 52.75, 166.9 52.75 M166.9 52.75 C119.85 52.75, 72.8 52.75, 13.19 52.75 M166.9 52.75 C111.51 52.75, 56.11 52.75, 13.19 52.75 M13.19 52.75 C4.4 52.75, 0 48.35, 0 39.56 M13.19 52.75 C4.4 52.75, 0 48.35, 0 39.56 M0 39.56 C0 34.08, 0 28.59, 0 13.19 M0 39.56 C0 29.26, 0 18.97, 0 13.19 M0 13.19 C0 4.4, 4.4 0, 13.19 0 M0 13.19 C0 4.4, 4.4 0, 13.19 0" stroke="#1e1e1e" stroke-width="2" fill="none"/></g><g transform="translate(693.5434724313241 546.3349457502362) rotate(0 76.248046875 16.099999999999994)"><text x="76.248046875" y="25.760546874999996" font-family="Helvetica, Segoe UI Emoji" font-size="28px" fill="#1e1e1e" text-anchor="middle" style="white-space: pre;" direction="ltr" dominant-baseline="alphabetic">Add &amp; Norm</text></g><g stroke-linecap="round"><g transform="translate(766.957490850378 589.0861400047936) rotate(0 0.037017822265625 12.969492594401032)"><path d="M0 0 C0.01 4.32, 0.06 21.62, 0.07 25.94 M0 0 C0.01 4.32, 0.06 21.62, 0.07 25.94" stroke="#1e1e1e" stroke-width="2" fill="none"/></g></g><mask/><g stroke-linecap="round" transform="translate(682.1451095298482 406.9985206471547) rotate(0 87.65472412109375 45.6436767578125)"><path d="M22.82 0 C67.54 0, 112.26 0, 152.49 0 C167.7 0, 175.31 7.61, 175.31 22.82 C175.31 35.84, 175.31 48.86, 175.31 68.47 C175.31 83.68, 167.7 91.29, 152.49 91.29 C104.47 91.29, 56.44 91.29, 22.82 91.29 C7.61 91.29, 0 83.68, 0 68.47 C0 51.91, 0 35.36, 0 22.82 C0 7.61, 7.61 0, 22.82 0" stroke="none" stroke-width="0" fill="#b2f2bb"/><path d="M22.82 0 C71.99 0, 121.16 0, 152.49 0 M22.82 0 C57.58 0, 92.35 0, 152.49 0 M152.49 0 C167.7 0, 175.31 7.61, 175.31 22.82 M152.49 0 C167.7 0, 175.31 7.61, 175.31 22.82 M175.31 22.82 C175.31 38.5, 175.31 54.18, 175.31 68.47 M175.31 22.82 C175.31 34.76, 175.31 46.69, 175.31 68.47 M175.31 68.47 C175.31 83.68, 167.7 91.29, 152.49 91.29 M175.31 68.47 C175.31 83.68, 167.7 91.29, 152.49 91.29 M152.49 91.29 C109.96 91.29, 67.43 91.29, 22.82 91.29 M152.49 91.29 C103.71 91.29, 54.92 91.29, 22.82 91.29 M22.82 91.29 C7.61 91.29, 0 83.68, 0 68.47 M22.82 91.29 C7.61 91.29, 0 83.68, 0 68.47 M0 68.47 C0 52.68, 0 36.9, 0 22.82 M0 68.47 C0 57.71, 0 46.95, 0 22.82 M0 22.82 C0 7.61, 7.61 0, 22.82 0 M0 22.82 C0 7.61, 7.61 0, 22.82 0" stroke="#1e1e1e" stroke-width="2" fill="none"/></g><g transform="translate(716.2416963930488 420.9290959596634) rotate(0 51.3447265625 32.19999999999999)"><text x="51.3447265625" y="25.760546874999996" font-family="Helvetica, Segoe UI Emoji" font-size="28px" fill="#1e1e1e" text-anchor="middle" style="white-space: pre;" direction="ltr" dominant-baseline="alphabetic">Feed</text><text x="51.3447265625" y="57.96054687499999" font-family="Helvetica, Segoe UI Emoji" font-size="28px" fill="#1e1e1e" text-anchor="middle" style="white-space: pre;" direction="ltr" dominant-baseline="alphabetic">Forward</text></g><g stroke-linecap="round" transform="translate(681.9148836489082 324.1970450427797) rotate(0 90.04531860351562 26.375)"><path d="M13.19 0 C46.27 0, 79.36 0, 166.9 0 C175.69 0, 180.09 4.4, 180.09 13.19 C180.09 19.4, 180.09 25.61, 180.09 39.56 C180.09 48.35, 175.69 52.75, 166.9 52.75 C125.86 52.75, 84.82 52.75, 13.19 52.75 C4.4 52.75, 0 48.35, 0 39.56 C0 33.74, 0 27.92, 0 13.19 C0 4.4, 4.4 0, 13.19 0" stroke="none" stroke-width="0" fill="#ffec99"/><path d="M13.19 0 C46.97 0, 80.74 0, 166.9 0 M13.19 0 C45.48 0, 77.78 0, 166.9 0 M166.9 0 C175.69 0, 180.09 4.4, 180.09 13.19 M166.9 0 C175.69 0, 180.09 4.4, 180.09 13.19 M180.09 13.19 C180.09 19.6, 180.09 26.01, 180.09 39.56 M180.09 13.19 C180.09 23.63, 180.09 34.07, 180.09 39.56 M180.09 39.56 C180.09 48.35, 175.69 52.75, 166.9 52.75 M180.09 39.56 C180.09 48.35, 175.69 52.75, 166.9 52.75 M166.9 52.75 C135.59 52.75, 104.27 52.75, 13.19 52.75 M166.9 52.75 C131.67 52.75, 96.43 52.75, 13.19 52.75 M13.19 52.75 C4.4 52.75, 0 48.35, 0 39.56 M13.19 52.75 C4.4 52.75, 0 48.35, 0 39.56 M0 39.56 C0 32.14, 0 24.72, 0 13.19 M0 39.56 C0 31.53, 0 23.5, 0 13.19 M0 13.19 C0 4.4, 4.4 0, 13.19 0 M0 13.19 C0 4.4, 4.4 0, 13.19 0" stroke="#1e1e1e" stroke-width="2" fill="none"/></g><g transform="translate(695.3222017641426 334.501158812311) rotate(0 76.248046875 16.100000000000023)"><text x="76.248046875" y="25.760546874999996" font-family="Helvetica, Segoe UI Emoji" font-size="28px" fill="#1e1e1e" text-anchor="middle" style="white-space: pre;" direction="ltr" dominant-baseline="alphabetic">Add &amp; Norm</text></g><g stroke-linecap="round"><g transform="translate(769.1796541567206 377.56988168557507) rotate(0 0.037017822265625 14.4462890625)"><path d="M0 0 C0.01 4.82, 0.06 24.08, 0.07 28.89 M0 0 C0.01 4.82, 0.06 24.08, 0.07 28.89" stroke="#1e1e1e" stroke-width="2" fill="none"/></g></g><mask/><g stroke-linecap="round"><g transform="translate(767.2288242595243 530.8087563329275) rotate(0 -0.004485826629391454 -14.697160508897554)"><path d="M0 0 C0 -4.9, -0.01 -24.5, -0.01 -29.39 M0 0 C0 -4.9, -0.01 -24.5, -0.01 -29.39" stroke="#1e1e1e" stroke-width="2" fill="none"/></g><g transform="translate(767.2288242595243 530.8087563329275) rotate(0 -0.004485826629391454 -14.697160508897554)"><path d="M-0.01 -29.39 L6.21 -16.08 L-6.22 -16.07 L-0.01 -29.39" stroke="none" stroke-width="0" fill="#1e1e1e" fill-rule="evenodd"/><path d="M-0.01 -29.39 C1.28 -26.63, 2.57 -23.86, 6.21 -16.08 M-0.01 -29.39 C1.42 -26.34, 2.84 -23.28, 6.21 -16.08 M6.21 -16.08 C2.88 -16.08, -0.45 -16.07, -6.22 -16.07 M6.21 -16.08 C3.49 -16.08, 0.77 -16.07, -6.22 -16.07 M-6.22 -16.07 C-4.66 -19.41, -3.11 -22.74, -0.01 -29.39 M-6.22 -16.07 C-4.95 -18.78, -3.69 -21.49, -0.01 -29.39 M-0.01 -29.39 C-0.01 -29.39, -0.01 -29.39, -0.01 -29.39 M-0.01 -29.39 C-0.01 -29.39, -0.01 -29.39, -0.01 -29.39" stroke="#1e1e1e" stroke-width="2" fill="none"/></g></g><mask/><g stroke-linecap="round"><g transform="translate(761.7624483461738 758.4775388850107) rotate(0 34.71345085112321 -28.06311713324658)"><path d="M0 0 C-0.01 -9.1, -0.03 -18.19, -0.03 -22.75 M0 0 C-0.01 -6.56, -0.02 -13.11, -0.03 -22.75 M-0.03 -22.75 C18.92 -22.78, 37.88 -22.82, 68.62 -22.88 M-0.03 -22.75 C15.27 -22.78, 30.58 -22.81, 68.62 -22.88 M68.62 -22.88 C68.82 -30.58, 69.01 -38.28, 69.46 -56.13 M68.62 -22.88 C68.92 -34.54, 69.21 -46.19, 69.46 -56.13" stroke="#1e1e1e" stroke-width="2" fill="none"/></g><g transform="translate(761.7624483461738 758.4775388850107) rotate(0 34.71345085112321 -28.06311713324658)"><path d="M69.46 -56.13 L75.46 -42.38 L62.78 -42.7 L69.46 -56.13" stroke="none" stroke-width="0" fill="#1e1e1e" fill-rule="evenodd"/><path d="M69.46 -56.13 C71.86 -50.63, 74.26 -45.13, 75.46 -42.38 M69.46 -56.13 C71.19 -52.16, 72.92 -48.2, 75.46 -42.38 M75.46 -42.38 C71.96 -42.46, 68.46 -42.55, 62.78 -42.7 M75.46 -42.38 C72.63 -42.45, 69.8 -42.52, 62.78 -42.7 M62.78 -42.7 C64.33 -45.81, 65.87 -48.92, 69.46 -56.13 M62.78 -42.7 C65.12 -47.4, 67.46 -52.11, 69.46 -56.13 M69.46 -56.13 C69.46 -56.13, 69.46 -56.13, 69.46 -56.13 M69.46 -56.13 C69.46 -56.13, 69.46 -56.13, 69.46 -56.13" stroke="#1e1e1e" stroke-width="2" fill="none"/></g></g><mask/><g stroke-linecap="round"><g transform="translate(762.4453944453488 747.6949903921208) rotate(0 77.47250366210938 -44.48480244569532)"><path d="M0 0 C60.96 -0.1, 121.91 -0.21, 154.95 -0.26 M0 0 C60.32 -0.1, 120.64 -0.21, 154.95 -0.26 M154.95 -0.26 C154.94 -9.98, 154.93 -19.7, 154.91 -46.86 M154.95 -0.26 C154.93 -15.19, 154.92 -30.12, 154.91 -46.86 M154.91 -46.86 C154.73 -57.53, 154.55 -68.2, 154.2 -88.97 M154.91 -46.86 C154.67 -61.36, 154.43 -75.87, 154.2 -88.97 M154.2 -88.97 C138.67 -88.81, 123.14 -88.64, 104.06 -88.44 M154.2 -88.97 C138.43 -88.8, 122.65 -88.64, 104.06 -88.44" stroke="#1e1e1e" stroke-width="2" fill="none"/></g><g transform="translate(762.4453944453488 747.6949903921208) rotate(0 77.47250366210938 -44.48480244569532)"><path d="M104.06 -88.44 L117.59 -94.92 L117.72 -82.25 L104.06 -88.44" stroke="none" stroke-width="0" fill="#1e1e1e" fill-rule="evenodd"/><path d="M104.06 -88.44 C109.39 -90.99, 114.71 -93.54, 117.59 -94.92 M104.06 -88.44 C109.33 -90.97, 114.6 -93.49, 117.59 -94.92 M117.59 -94.92 C117.62 -92.28, 117.65 -89.64, 117.72 -82.25 M117.59 -94.92 C117.63 -90.86, 117.68 -86.8, 117.72 -82.25 M117.72 -82.25 C114.26 -83.82, 110.8 -85.39, 104.06 -88.44 M117.72 -82.25 C113.02 -84.38, 108.31 -86.52, 104.06 -88.44 M104.06 -88.44 C104.06 -88.44, 104.06 -88.44, 104.06 -88.44 M104.06 -88.44 C104.06 -88.44, 104.06 -88.44, 104.06 -88.44" stroke="#1e1e1e" stroke-width="2" fill="none"/></g></g><mask/><g stroke-linecap="round"><g transform="translate(263.4274874086735 548.8364312130104) rotate(0 216.422831217448 60.187185824127084)"><path d="M0 0 C0.06 -15.19, 0.13 -30.38, 0.26 -62.45 M0 0 C0.05 -12.65, 0.1 -25.3, 0.26 -62.45 M0.26 -62.45 C67.17 -62.31, 134.09 -62.16, 280.17 -61.85 M0.26 -62.45 C57.31 -62.33, 114.36 -62.21, 280.17 -61.85 M280.17 -61.85 C280.82 13.69, 281.47 89.23, 282.27 182.21 M280.17 -61.85 C280.66 -5.05, 281.15 51.74, 282.27 182.21 M282.27 182.21 C326.87 182.39, 371.48 182.57, 432.85 182.83 M282.27 182.21 C326.11 182.39, 369.96 182.57, 432.85 182.83 M432.85 182.83 C432.7 174.63, 432.55 166.44, 432.37 156.12 M432.85 182.83 C432.68 173.24, 432.5 163.65, 432.37 156.12" stroke="#1e1e1e" stroke-width="2" fill="none"/></g><g transform="translate(263.4274874086735 548.8364312130104) rotate(0 216.422831217448 60.187185824127084)"><path d="M432.37 156.12 L438.23 168.12 L426.94 168.32 L432.37 156.12" stroke="none" stroke-width="0" fill="#1e1e1e" fill-rule="evenodd"/><path d="M432.37 156.12 C433.8 159.03, 435.22 161.95, 438.23 168.12 M432.37 156.12 C433.56 158.55, 434.74 160.98, 438.23 168.12 M438.23 168.12 C435.53 168.17, 432.83 168.21, 426.94 168.32 M438.23 168.12 C435.93 168.16, 433.63 168.2, 426.94 168.32 M426.94 168.32 C428.62 164.54, 430.3 160.76, 432.37 156.12 M426.94 168.32 C428.21 165.48, 429.47 162.64, 432.37 156.12 M432.37 156.12 C432.37 156.12, 432.37 156.12, 432.37 156.12 M432.37 156.12 C432.37 156.12, 432.37 156.12, 432.37 156.12" stroke="#1e1e1e" stroke-width="2" fill="none"/></g></g><mask/><g stroke-linecap="round"><g transform="translate(696.2376816361042 731.2884075155373) rotate(0 25.797865125868157 -14.151359365773658)"><path d="M0 0 C15.37 0.01, 30.74 0.03, 51.6 0.05 M0 0 C17.28 0.02, 34.56 0.03, 51.6 0.05 M51.6 0.05 C51.48 -8.19, 51.37 -16.44, 51.2 -28.35 M51.6 0.05 C51.49 -7.26, 51.39 -14.56, 51.2 -28.35" stroke="#1e1e1e" stroke-width="2" fill="none"/></g><g transform="translate(696.2376816361042 731.2884075155373) rotate(0 25.797865125868157 -14.151359365773658)"><path d="M51.2 -28.35 L57.38 -15.57 L45.38 -15.4 L51.2 -28.35" stroke="none" stroke-width="0" fill="#1e1e1e" fill-rule="evenodd"/><path d="M51.2 -28.35 C53.04 -24.54, 54.88 -20.73, 57.38 -15.57 M51.2 -28.35 C53.27 -24.07, 55.34 -19.79, 57.38 -15.57 M57.38 -15.57 C53.9 -15.52, 50.41 -15.47, 45.38 -15.4 M57.38 -15.57 C54.29 -15.52, 51.21 -15.48, 45.38 -15.4 M45.38 -15.4 C46.94 -18.86, 48.49 -22.33, 51.2 -28.35 M45.38 -15.4 C47.01 -19.04, 48.65 -22.68, 51.2 -28.35 M51.2 -28.35 C51.2 -28.35, 51.2 -28.35, 51.2 -28.35 M51.2 -28.35 C51.2 -28.35, 51.2 -28.35, 51.2 -28.35" stroke="#1e1e1e" stroke-width="2" fill="none"/></g></g><mask/><g stroke-linecap="round"><g transform="translate(768.0273985686127 521.9921366594821) rotate(0 77.47250366210938 -84.57244723464936)"><path d="M0 0 C45.3 -0.15, 90.59 -0.29, 154.95 -0.5 M0 0 C54.1 -0.18, 108.2 -0.35, 154.95 -0.5 M154.95 -0.5 C154.94 -23.52, 154.93 -46.53, 154.91 -89.08 M154.95 -0.5 C154.94 -19.8, 154.93 -39.09, 154.91 -89.08 M154.91 -89.08 C154.72 -111.2, 154.52 -133.32, 154.2 -169.14 M154.91 -89.08 C154.67 -116.63, 154.43 -144.18, 154.2 -169.14 M154.2 -169.14 C142.24 -169.06, 130.28 -168.98, 96.13 -168.75 M154.2 -169.14 C134.18 -169.01, 114.16 -168.88, 96.13 -168.75" stroke="#1e1e1e" stroke-width="2" fill="none"/></g><g transform="translate(768.0273985686127 521.9921366594821) rotate(0 77.47250366210938 -84.57244723464936)"><path d="M96.13 -168.75 L109.68 -175.18 L109.76 -162.51 L96.13 -168.75" stroke="none" stroke-width="0" fill="#1e1e1e" fill-rule="evenodd"/><path d="M96.13 -168.75 C100.09 -170.63, 104.05 -172.51, 109.68 -175.18 M96.13 -168.75 C100.86 -171, 105.59 -173.24, 109.68 -175.18 M109.68 -175.18 C109.7 -171.89, 109.72 -168.6, 109.76 -162.51 M109.68 -175.18 C109.7 -172.42, 109.72 -169.66, 109.76 -162.51 M109.76 -162.51 C106 -164.23, 102.23 -165.96, 96.13 -168.75 M109.76 -162.51 C105.07 -164.66, 100.38 -166.81, 96.13 -168.75 M96.13 -168.75 C96.13 -168.75, 96.13 -168.75, 96.13 -168.75 M96.13 -168.75 C96.13 -168.75, 96.13 -168.75, 96.13 -168.75" stroke="#1e1e1e" stroke-width="2" fill="none"/></g></g><mask/><g stroke-linecap="round" transform="translate(682.7855331986041 220.78261633184206) rotate(0 90.1959228515625 26.61838107638897)"><path d="M13.31 0 C57.41 0, 101.5 0, 167.08 0 C175.96 0, 180.39 4.44, 180.39 13.31 C180.39 19.45, 180.39 25.6, 180.39 39.93 C180.39 48.8, 175.96 53.24, 167.08 53.24 C127.06 53.24, 87.03 53.24, 13.31 53.24 C4.44 53.24, 0 48.8, 0 39.93 C0 32.69, 0 25.46, 0 13.31 C0 4.44, 4.44 0, 13.31 0" stroke="none" stroke-width="0" fill="#f3f0ff"/><path d="M13.31 0 C47.43 0, 81.54 0, 167.08 0 M13.31 0 C45.86 0, 78.42 0, 167.08 0 M167.08 0 C175.96 0, 180.39 4.44, 180.39 13.31 M167.08 0 C175.96 0, 180.39 4.44, 180.39 13.31 M180.39 13.31 C180.39 22.4, 180.39 31.49, 180.39 39.93 M180.39 13.31 C180.39 21.46, 180.39 29.6, 180.39 39.93 M180.39 39.93 C180.39 48.8, 175.96 53.24, 167.08 53.24 M180.39 39.93 C180.39 48.8, 175.96 53.24, 167.08 53.24 M167.08 53.24 C120.44 53.24, 73.8 53.24, 13.31 53.24 M167.08 53.24 C112.7 53.24, 58.32 53.24, 13.31 53.24 M13.31 53.24 C4.44 53.24, 0 48.8, 0 39.93 M13.31 53.24 C4.44 53.24, 0 48.8, 0 39.93 M0 39.93 C0 32.59, 0 25.24, 0 13.31 M0 39.93 C0 32.21, 0 24.49, 0 13.31 M0 13.31 C0 4.44, 4.44 0, 13.31 0 M0 13.31 C0 4.44, 4.44 0, 13.31 0" stroke="#1e1e1e" stroke-width="2" fill="none"/></g><g transform="translate(732.455373693396 231.5824820544983) rotate(0 38.9169921875 16.100000000000023)"><text x="38.9169921875" y="25.760546874999996" font-family="Helvetica, Segoe UI Emoji" font-size="28px" fill="#1e1e1e" text-anchor="middle" style="white-space: pre;" direction="ltr" dominant-baseline="alphabetic">Linear</text></g><g stroke-linecap="round"><g transform="translate(768.811059457285 317.8459097888733) rotate(0 -0.11033799913195708 -19.292449951171875)"><path d="M0 0 C-0.04 -6.43, -0.18 -32.15, -0.22 -38.58 M0 0 C-0.04 -6.43, -0.18 -32.15, -0.22 -38.58" stroke="#1e1e1e" stroke-width="2" fill="none"/></g><g transform="translate(768.811059457285 317.8459097888733) rotate(0 -0.11033799913195708 -19.292449951171875)"><path d="M-0.22 -38.58 L6.2 -25.03 L-6.48 -24.95 L-0.22 -38.58" stroke="none" stroke-width="0" fill="#1e1e1e" fill-rule="evenodd"/><path d="M-0.22 -38.58 C1.68 -34.56, 3.59 -30.54, 6.2 -25.03 M-0.22 -38.58 C2.31 -33.24, 4.84 -27.9, 6.2 -25.03 M6.2 -25.03 C2.64 -25.01, -0.92 -24.99, -6.48 -24.95 M6.2 -25.03 C1.21 -25, -3.77 -24.97, -6.48 -24.95 M-6.48 -24.95 C-5.1 -27.97, -3.71 -30.98, -0.22 -38.58 M-6.48 -24.95 C-4.57 -29.11, -2.66 -33.27, -0.22 -38.58 M-0.22 -38.58 C-0.22 -38.58, -0.22 -38.58, -0.22 -38.58 M-0.22 -38.58 C-0.22 -38.58, -0.22 -38.58, -0.22 -38.58" stroke="#1e1e1e" stroke-width="2" fill="none"/></g></g><mask/><g stroke-linecap="round" transform="translate(684.2378184707077 122.16293334960915) rotate(0 90.1959228515625 26.61838107638897)"><path d="M13.31 0 C52.88 0, 92.46 0, 167.08 0 C175.96 0, 180.39 4.44, 180.39 13.31 C180.39 22.19, 180.39 31.08, 180.39 39.93 C180.39 48.8, 175.96 53.24, 167.08 53.24 C132.27 53.24, 97.45 53.24, 13.31 53.24 C4.44 53.24, 0 48.8, 0 39.93 C0 34.26, 0 28.59, 0 13.31 C0 4.44, 4.44 0, 13.31 0" stroke="none" stroke-width="0" fill="#fff0f6"/><path d="M13.31 0 C54.97 0, 96.63 0, 167.08 0 M13.31 0 C62.68 0, 112.05 0, 167.08 0 M167.08 0 C175.96 0, 180.39 4.44, 180.39 13.31 M167.08 0 C175.96 0, 180.39 4.44, 180.39 13.31 M180.39 13.31 C180.39 22.44, 180.39 31.56, 180.39 39.93 M180.39 13.31 C180.39 21.75, 180.39 30.2, 180.39 39.93 M180.39 39.93 C180.39 48.8, 175.96 53.24, 167.08 53.24 M180.39 39.93 C180.39 48.8, 175.96 53.24, 167.08 53.24 M167.08 53.24 C127.18 53.24, 87.28 53.24, 13.31 53.24 M167.08 53.24 C116.56 53.24, 66.03 53.24, 13.31 53.24 M13.31 53.24 C4.44 53.24, 0 48.8, 0 39.93 M13.31 53.24 C4.44 53.24, 0 48.8, 0 39.93 M0 39.93 C0 30.75, 0 21.56, 0 13.31 M0 39.93 C0 33.34, 0 26.76, 0 13.31 M0 13.31 C0 4.44, 4.44 0, 13.31 0 M0 13.31 C0 4.44, 4.44 0, 13.31 0" stroke="#1e1e1e" stroke-width="2" fill="none"/></g><g transform="translate(720.0798730497008 133.16645304361975) rotate(0 51.3515625 16.100000000000023)"><text x="51.3515625" y="25.760546874999996" font-family="Helvetica, Segoe UI Emoji" font-size="28px" fill="#1e1e1e" text-anchor="middle" style="white-space: pre;" direction="ltr" dominant-baseline="alphabetic">Softmax</text></g><g stroke-linecap="round"><g transform="translate(770.4070486139367 216.41370985243043) rotate(0 0.08395724826391415 -19.424107869466184)"><path d="M0 0 C0.03 -6.47, 0.14 -32.37, 0.17 -38.85 M0 0 C0.03 -6.47, 0.14 -32.37, 0.17 -38.85" stroke="#1e1e1e" stroke-width="2" fill="none"/></g><g transform="translate(770.4070486139367 216.41370985243043) rotate(0 0.08395724826391415 -19.424107869466184)"><path d="M0.17 -38.85 L6.45 -25.23 L-6.23 -25.28 L0.17 -38.85" stroke="none" stroke-width="0" fill="#1e1e1e" fill-rule="evenodd"/><path d="M0.17 -38.85 C2.17 -34.51, 4.17 -30.17, 6.45 -25.23 M0.17 -38.85 C2.64 -33.49, 5.11 -28.13, 6.45 -25.23 M6.45 -25.23 C2.73 -25.24, -0.99 -25.26, -6.23 -25.28 M6.45 -25.23 C2.73 -25.24, -0.98 -25.26, -6.23 -25.28 M-6.23 -25.28 C-4.84 -28.24, -3.44 -31.19, 0.17 -38.85 M-6.23 -25.28 C-4.22 -29.55, -2.2 -33.82, 0.17 -38.85 M0.17 -38.85 C0.17 -38.85, 0.17 -38.85, 0.17 -38.85 M0.17 -38.85 C0.17 -38.85, 0.17 -38.85, 0.17 -38.85" stroke="#1e1e1e" stroke-width="2" fill="none"/></g></g><mask/><g transform="translate(696.3191308622004 10) rotate(0 76.26171875 32.19999999999999)"><text x="76.26171875" y="25.760546874999996" font-family="Helvetica, Segoe UI Emoji" font-size="28px" fill="#1e1e1e" text-anchor="middle" style="white-space: pre;" direction="ltr" dominant-baseline="alphabetic">Output</text><text x="76.26171875" y="57.96054687499999" font-family="Helvetica, Segoe UI Emoji" font-size="28px" fill="#1e1e1e" text-anchor="middle" style="white-space: pre;" direction="ltr" dominant-baseline="alphabetic">Probabilities</text></g><g stroke-linecap="round"><g transform="translate(771.3061642823395 115.02538045247377) rotate(0 0.13563368055554292 -19.234229193793396)"><path d="M0 0 C0.05 -6.41, 0.23 -32.06, 0.27 -38.47 M0 0 C0.05 -6.41, 0.23 -32.06, 0.27 -38.47" stroke="#1e1e1e" stroke-width="2" fill="none"/></g><g transform="translate(771.3061642823395 115.02538045247377) rotate(0 0.13563368055554292 -19.234229193793396)"><path d="M0.27 -38.47 L6.51 -24.83 L-6.16 -24.92 L0.27 -38.47" stroke="none" stroke-width="0" fill="#1e1e1e" fill-rule="evenodd"/><path d="M0.27 -38.47 C1.92 -34.86, 3.58 -31.25, 6.51 -24.83 M0.27 -38.47 C1.81 -35.1, 3.36 -31.73, 6.51 -24.83 M6.51 -24.83 C2.48 -24.86, -1.56 -24.89, -6.16 -24.92 M6.51 -24.83 C2.79 -24.86, -0.93 -24.88, -6.16 -24.92 M-6.16 -24.92 C-4.73 -27.94, -3.29 -30.97, 0.27 -38.47 M-6.16 -24.92 C-3.88 -29.72, -1.6 -34.52, 0.27 -38.47 M0.27 -38.47 C0.27 -38.47, 0.27 -38.47, 0.27 -38.47 M0.27 -38.47 C0.27 -38.47, 0.27 -38.47, 0.27 -38.47" stroke="#1e1e1e" stroke-width="2" fill="none"/></g></g><mask/><g transform="translate(978.5323376832189 642.3006489369607) rotate(0 20.00390625 20.69999999999999)"><text x="20.00390625" y="33.120703125" font-family="Helvetica, Segoe UI Emoji" font-size="36px" fill="#1e1e1e" text-anchor="middle" style="white-space: pre;" direction="ltr" dominant-baseline="alphabetic">*N</text></g></svg>